<?xml version="1.0" encoding="UTF-8" standalone="no"?>
<!DOCTYPE svg PUBLIC "-//W3C//DTD SVG 1.1//EN"
 "http://www.w3.org/Graphics/SVG/1.1/DTD/svg11.dtd">
<!-- Generated by graphviz version 13.1.0 (20250701.0955)
 -->
<!-- Pages: 1 -->
<svg width="473pt" height="1145pt"
 viewBox="0.00 0.00 473.00 1145.00" xmlns="http://www.w3.org/2000/svg" xmlns:xlink="http://www.w3.org/1999/xlink">
<g id="graph0" class="graph" transform="scale(0.561 0.561) rotate(0) translate(4 2037)">
<polygon fill="white" stroke="none" points="-4,4 -4,-2037 840,-2037 840,4 -4,4"/>
<!-- 1221908050472 -->
<g id="node1" class="node">
<title>1221908050472</title>
<polygon fill="#caff70" stroke="black" points="669,-32.75 587,-32.75 587,0 669,0 669,-32.75"/>
<text xml:space="preserve" text-anchor="middle" x="628" y="-7.25" font-family="monospace" font-size="10.00"> (144, 128)</text>
</g>
<!-- 1221907995976 -->
<g id="node2" class="node">
<title>1221907995976</title>
<polygon fill="lightgrey" stroke="black" points="672,-89.5 584,-89.5 584,-68.75 672,-68.75 672,-89.5"/>
<text xml:space="preserve" text-anchor="middle" x="628" y="-76" font-family="monospace" font-size="10.00">DivBackward0</text>
</g>
<!-- 1221907995976&#45;&gt;1221908050472 -->
<g id="edge53" class="edge">
<title>1221907995976&#45;&gt;1221908050472</title>
<path fill="none" stroke="black" d="M628,-68.36C628,-61.89 628,-53.05 628,-44.55"/>
<polygon fill="black" stroke="black" points="631.5,-44.55 628,-34.55 624.5,-44.55 631.5,-44.55"/>
</g>
<!-- 1221908046728 -->
<g id="node3" class="node">
<title>1221908046728</title>
<polygon fill="lightgrey" stroke="black" points="670,-316.5 582,-316.5 582,-295.75 670,-295.75 670,-316.5"/>
<text xml:space="preserve" text-anchor="middle" x="626" y="-303" font-family="monospace" font-size="10.00">ViewBackward</text>
</g>
<!-- 1221908046728&#45;&gt;1221907995976 -->
<g id="edge1" class="edge">
<title>1221908046728&#45;&gt;1221907995976</title>
<path fill="none" stroke="black" d="M622.34,-295.55C619.05,-286.48 614.36,-272.39 612,-259.75 601.03,-201.1 598.82,-183.91 611,-125.5 612.76,-117.08 615.82,-108.14 618.87,-100.45"/>
<polygon fill="black" stroke="black" points="622.05,-101.92 622.72,-91.35 615.6,-99.19 622.05,-101.92"/>
</g>
<!-- 1221907899656 -->
<g id="node53" class="node">
<title>1221907899656</title>
<polygon fill="lightgrey" stroke="black" points="715,-259.75 621,-259.75 621,-239 715,-239 715,-259.75"/>
<text xml:space="preserve" text-anchor="middle" x="668" y="-246.25" font-family="monospace" font-size="10.00">NormBackward1</text>
</g>
<!-- 1221908046728&#45;&gt;1221907899656 -->
<g id="edge52" class="edge">
<title>1221908046728&#45;&gt;1221907899656</title>
<path fill="none" stroke="black" d="M633.51,-295.34C639.12,-288.02 646.97,-277.79 653.76,-268.94"/>
<polygon fill="black" stroke="black" points="656.33,-271.34 659.64,-261.28 650.77,-267.08 656.33,-271.34"/>
</g>
<!-- 1221907862536 -->
<g id="node4" class="node">
<title>1221907862536</title>
<polygon fill="lightgrey" stroke="black" points="673,-373.25 579,-373.25 579,-352.5 673,-352.5 673,-373.25"/>
<text xml:space="preserve" text-anchor="middle" x="626" y="-359.75" font-family="monospace" font-size="10.00">AddmmBackward</text>
</g>
<!-- 1221907862536&#45;&gt;1221908046728 -->
<g id="edge2" class="edge">
<title>1221907862536&#45;&gt;1221908046728</title>
<path fill="none" stroke="black" d="M626,-352.09C626,-345.47 626,-336.47 626,-328.27"/>
<polygon fill="black" stroke="black" points="629.5,-328.34 626,-318.34 622.5,-328.34 629.5,-328.34"/>
</g>
<!-- 1221907862024 -->
<g id="node5" class="node">
<title>1221907862024</title>
<polygon fill="lightgrey" stroke="black" points="546,-430 446,-430 446,-409.25 546,-409.25 546,-430"/>
<text xml:space="preserve" text-anchor="middle" x="496" y="-416.5" font-family="monospace" font-size="10.00">AccumulateGrad</text>
</g>
<!-- 1221907862024&#45;&gt;1221907862536 -->
<g id="edge3" class="edge">
<title>1221907862024&#45;&gt;1221907862536</title>
<path fill="none" stroke="black" d="M519.24,-408.84C539.67,-400.23 569.64,-387.61 592.63,-377.93"/>
<polygon fill="black" stroke="black" points="593.71,-381.27 601.56,-374.17 590.99,-374.82 593.71,-381.27"/>
</g>
<!-- 1221902601816 -->
<g id="node6" class="node">
<title>1221902601816</title>
<polygon fill="lightblue" stroke="black" points="516,-499.5 440,-499.5 440,-466 516,-466 516,-499.5"/>
<text xml:space="preserve" text-anchor="middle" x="478" y="-486" font-family="monospace" font-size="10.00">fc1.0.bias</text>
<text xml:space="preserve" text-anchor="middle" x="478" y="-473.25" font-family="monospace" font-size="10.00"> (128)</text>
</g>
<!-- 1221902601816&#45;&gt;1221907862024 -->
<g id="edge4" class="edge">
<title>1221902601816&#45;&gt;1221907862024</title>
<path fill="none" stroke="black" d="M482.73,-465.69C484.92,-458.27 487.54,-449.36 489.87,-441.43"/>
<polygon fill="black" stroke="black" points="493.21,-442.5 492.67,-431.92 486.49,-440.52 493.21,-442.5"/>
</g>
<!-- 1221907862280 -->
<g id="node7" class="node">
<title>1221907862280</title>
<polygon fill="lightgrey" stroke="black" points="670,-430 582,-430 582,-409.25 670,-409.25 670,-430"/>
<text xml:space="preserve" text-anchor="middle" x="626" y="-416.5" font-family="monospace" font-size="10.00">ViewBackward</text>
</g>
<!-- 1221907862280&#45;&gt;1221907862536 -->
<g id="edge5" class="edge">
<title>1221907862280&#45;&gt;1221907862536</title>
<path fill="none" stroke="black" d="M626,-408.84C626,-402.22 626,-393.22 626,-385.02"/>
<polygon fill="black" stroke="black" points="629.5,-385.09 626,-375.09 622.5,-385.09 629.5,-385.09"/>
</g>
<!-- 1221907993544 -->
<g id="node8" class="node">
<title>1221907993544</title>
<polygon fill="lightgrey" stroke="black" points="718,-493.12 534,-493.12 534,-472.38 718,-472.38 718,-493.12"/>
<text xml:space="preserve" text-anchor="middle" x="626" y="-479.62" font-family="monospace" font-size="10.00">MaxPool2DWithIndicesBackward</text>
</g>
<!-- 1221907993544&#45;&gt;1221907862280 -->
<g id="edge6" class="edge">
<title>1221907993544&#45;&gt;1221907862280</title>
<path fill="none" stroke="black" d="M626,-471.93C626,-463.77 626,-451.88 626,-441.6"/>
<polygon fill="black" stroke="black" points="629.5,-441.73 626,-431.73 622.5,-441.73 629.5,-441.73"/>
</g>
<!-- 1221907861576 -->
<g id="node9" class="node">
<title>1221907861576</title>
<polygon fill="lightgrey" stroke="black" points="703,-562.62 549,-562.62 549,-541.88 703,-541.88 703,-562.62"/>
<text xml:space="preserve" text-anchor="middle" x="626" y="-549.12" font-family="monospace" font-size="10.00">NativeBatchNormBackward</text>
</g>
<!-- 1221907861576&#45;&gt;1221907993544 -->
<g id="edge7" class="edge">
<title>1221907861576&#45;&gt;1221907993544</title>
<path fill="none" stroke="black" d="M626,-541.58C626,-531.96 626,-516.88 626,-504.54"/>
<polygon fill="black" stroke="black" points="629.5,-504.92 626,-494.92 622.5,-504.92 629.5,-504.92"/>
</g>
<!-- 1221907864200 -->
<g id="node10" class="node">
<title>1221907864200</title>
<polygon fill="lightgrey" stroke="black" points="706,-625.75 546,-625.75 546,-605 706,-605 706,-625.75"/>
<text xml:space="preserve" text-anchor="middle" x="626" y="-612.25" font-family="monospace" font-size="10.00">CudnnConvolutionBackward</text>
</g>
<!-- 1221907864200&#45;&gt;1221907861576 -->
<g id="edge8" class="edge">
<title>1221907864200&#45;&gt;1221907861576</title>
<path fill="none" stroke="black" d="M626,-604.55C626,-596.4 626,-584.51 626,-574.23"/>
<polygon fill="black" stroke="black" points="629.5,-574.36 626,-564.36 622.5,-574.36 629.5,-574.36"/>
</g>
<!-- 1221907863432 -->
<g id="node11" class="node">
<title>1221907863432</title>
<polygon fill="lightgrey" stroke="black" points="616,-682.5 522,-682.5 522,-661.75 616,-661.75 616,-682.5"/>
<text xml:space="preserve" text-anchor="middle" x="569" y="-669" font-family="monospace" font-size="10.00">ReluBackward0</text>
</g>
<!-- 1221907863432&#45;&gt;1221907864200 -->
<g id="edge9" class="edge">
<title>1221907863432&#45;&gt;1221907864200</title>
<path fill="none" stroke="black" d="M579.19,-661.34C587.13,-653.71 598.37,-642.92 607.84,-633.82"/>
<polygon fill="black" stroke="black" points="610.02,-636.58 614.81,-627.13 605.17,-631.53 610.02,-636.58"/>
</g>
<!-- 1221907864136 -->
<g id="node12" class="node">
<title>1221907864136</title>
<polygon fill="lightgrey" stroke="black" points="625,-745.62 471,-745.62 471,-724.88 625,-724.88 625,-745.62"/>
<text xml:space="preserve" text-anchor="middle" x="548" y="-732.12" font-family="monospace" font-size="10.00">NativeBatchNormBackward</text>
</g>
<!-- 1221907864136&#45;&gt;1221907863432 -->
<g id="edge10" class="edge">
<title>1221907864136&#45;&gt;1221907863432</title>
<path fill="none" stroke="black" d="M551.37,-724.43C554.24,-716.09 558.44,-703.86 562.03,-693.43"/>
<polygon fill="black" stroke="black" points="565.27,-694.75 565.21,-684.15 558.65,-692.47 565.27,-694.75"/>
</g>
<!-- 1221880967816 -->
<g id="node13" class="node">
<title>1221880967816</title>
<polygon fill="lightgrey" stroke="black" points="628,-808.75 468,-808.75 468,-788 628,-788 628,-808.75"/>
<text xml:space="preserve" text-anchor="middle" x="548" y="-795.25" font-family="monospace" font-size="10.00">CudnnConvolutionBackward</text>
</g>
<!-- 1221880967816&#45;&gt;1221907864136 -->
<g id="edge11" class="edge">
<title>1221880967816&#45;&gt;1221907864136</title>
<path fill="none" stroke="black" d="M548,-787.55C548,-779.4 548,-767.51 548,-757.23"/>
<polygon fill="black" stroke="black" points="551.5,-757.36 548,-747.36 544.5,-757.36 551.5,-757.36"/>
</g>
<!-- 1221907902216 -->
<g id="node14" class="node">
<title>1221907902216</title>
<polygon fill="lightgrey" stroke="black" points="538,-865.5 444,-865.5 444,-844.75 538,-844.75 538,-865.5"/>
<text xml:space="preserve" text-anchor="middle" x="491" y="-852" font-family="monospace" font-size="10.00">ReluBackward0</text>
</g>
<!-- 1221907902216&#45;&gt;1221880967816 -->
<g id="edge12" class="edge">
<title>1221907902216&#45;&gt;1221880967816</title>
<path fill="none" stroke="black" d="M501.19,-844.34C509.13,-836.71 520.37,-825.92 529.84,-816.82"/>
<polygon fill="black" stroke="black" points="532.02,-819.58 536.81,-810.13 527.17,-814.53 532.02,-819.58"/>
</g>
<!-- 1221907899144 -->
<g id="node15" class="node">
<title>1221907899144</title>
<polygon fill="lightgrey" stroke="black" points="547,-928.62 393,-928.62 393,-907.88 547,-907.88 547,-928.62"/>
<text xml:space="preserve" text-anchor="middle" x="470" y="-915.12" font-family="monospace" font-size="10.00">NativeBatchNormBackward</text>
</g>
<!-- 1221907899144&#45;&gt;1221907902216 -->
<g id="edge13" class="edge">
<title>1221907899144&#45;&gt;1221907902216</title>
<path fill="none" stroke="black" d="M473.37,-907.43C476.24,-899.09 480.44,-886.86 484.03,-876.43"/>
<polygon fill="black" stroke="black" points="487.27,-877.75 487.21,-867.15 480.65,-875.47 487.27,-877.75"/>
</g>
<!-- 1221880481160 -->
<g id="node16" class="node">
<title>1221880481160</title>
<polygon fill="lightgrey" stroke="black" points="550,-991.75 390,-991.75 390,-971 550,-971 550,-991.75"/>
<text xml:space="preserve" text-anchor="middle" x="470" y="-978.25" font-family="monospace" font-size="10.00">CudnnConvolutionBackward</text>
</g>
<!-- 1221880481160&#45;&gt;1221907899144 -->
<g id="edge14" class="edge">
<title>1221880481160&#45;&gt;1221907899144</title>
<path fill="none" stroke="black" d="M470,-970.55C470,-962.4 470,-950.51 470,-940.23"/>
<polygon fill="black" stroke="black" points="473.5,-940.36 470,-930.36 466.5,-940.36 473.5,-940.36"/>
</g>
<!-- 1221881002120 -->
<g id="node17" class="node">
<title>1221881002120</title>
<polygon fill="lightgrey" stroke="black" points="460,-1048.5 366,-1048.5 366,-1027.75 460,-1027.75 460,-1048.5"/>
<text xml:space="preserve" text-anchor="middle" x="413" y="-1035" font-family="monospace" font-size="10.00">ReluBackward0</text>
</g>
<!-- 1221881002120&#45;&gt;1221880481160 -->
<g id="edge15" class="edge">
<title>1221881002120&#45;&gt;1221880481160</title>
<path fill="none" stroke="black" d="M423.19,-1027.34C431.13,-1019.71 442.37,-1008.92 451.84,-999.82"/>
<polygon fill="black" stroke="black" points="454.02,-1002.58 458.81,-993.13 449.17,-997.53 454.02,-1002.58"/>
</g>
<!-- 1221907906888 -->
<g id="node18" class="node">
<title>1221907906888</title>
<polygon fill="lightgrey" stroke="black" points="469,-1111.62 315,-1111.62 315,-1090.88 469,-1090.88 469,-1111.62"/>
<text xml:space="preserve" text-anchor="middle" x="392" y="-1098.12" font-family="monospace" font-size="10.00">NativeBatchNormBackward</text>
</g>
<!-- 1221907906888&#45;&gt;1221881002120 -->
<g id="edge16" class="edge">
<title>1221907906888&#45;&gt;1221881002120</title>
<path fill="none" stroke="black" d="M395.37,-1090.43C398.24,-1082.09 402.44,-1069.86 406.03,-1059.43"/>
<polygon fill="black" stroke="black" points="409.27,-1060.75 409.21,-1050.15 402.65,-1058.47 409.27,-1060.75"/>
</g>
<!-- 1221907906824 -->
<g id="node19" class="node">
<title>1221907906824</title>
<polygon fill="lightgrey" stroke="black" points="472,-1174.75 312,-1174.75 312,-1154 472,-1154 472,-1174.75"/>
<text xml:space="preserve" text-anchor="middle" x="392" y="-1161.25" font-family="monospace" font-size="10.00">CudnnConvolutionBackward</text>
</g>
<!-- 1221907906824&#45;&gt;1221907906888 -->
<g id="edge17" class="edge">
<title>1221907906824&#45;&gt;1221907906888</title>
<path fill="none" stroke="black" d="M392,-1153.55C392,-1145.4 392,-1133.51 392,-1123.23"/>
<polygon fill="black" stroke="black" points="395.5,-1123.36 392,-1113.36 388.5,-1123.36 395.5,-1123.36"/>
</g>
<!-- 1221907910152 -->
<g id="node20" class="node">
<title>1221907910152</title>
<polygon fill="lightgrey" stroke="black" points="382,-1231.5 288,-1231.5 288,-1210.75 382,-1210.75 382,-1231.5"/>
<text xml:space="preserve" text-anchor="middle" x="335" y="-1218" font-family="monospace" font-size="10.00">ReluBackward0</text>
</g>
<!-- 1221907910152&#45;&gt;1221907906824 -->
<g id="edge18" class="edge">
<title>1221907910152&#45;&gt;1221907906824</title>
<path fill="none" stroke="black" d="M345.19,-1210.34C353.13,-1202.71 364.37,-1191.92 373.84,-1182.82"/>
<polygon fill="black" stroke="black" points="376.02,-1185.58 380.81,-1176.13 371.17,-1180.53 376.02,-1185.58"/>
</g>
<!-- 1221907909896 -->
<g id="node21" class="node">
<title>1221907909896</title>
<polygon fill="lightgrey" stroke="black" points="391,-1294.62 237,-1294.62 237,-1273.88 391,-1273.88 391,-1294.62"/>
<text xml:space="preserve" text-anchor="middle" x="314" y="-1281.12" font-family="monospace" font-size="10.00">NativeBatchNormBackward</text>
</g>
<!-- 1221907909896&#45;&gt;1221907910152 -->
<g id="edge19" class="edge">
<title>1221907909896&#45;&gt;1221907910152</title>
<path fill="none" stroke="black" d="M317.37,-1273.43C320.24,-1265.09 324.44,-1252.86 328.03,-1242.43"/>
<polygon fill="black" stroke="black" points="331.27,-1243.75 331.21,-1233.15 324.65,-1241.47 331.27,-1243.75"/>
</g>
<!-- 1221907907976 -->
<g id="node22" class="node">
<title>1221907907976</title>
<polygon fill="lightgrey" stroke="black" points="394,-1357.75 234,-1357.75 234,-1337 394,-1337 394,-1357.75"/>
<text xml:space="preserve" text-anchor="middle" x="314" y="-1344.25" font-family="monospace" font-size="10.00">CudnnConvolutionBackward</text>
</g>
<!-- 1221907907976&#45;&gt;1221907909896 -->
<g id="edge20" class="edge">
<title>1221907907976&#45;&gt;1221907909896</title>
<path fill="none" stroke="black" d="M314,-1336.55C314,-1328.4 314,-1316.51 314,-1306.23"/>
<polygon fill="black" stroke="black" points="317.5,-1306.36 314,-1296.36 310.5,-1306.36 317.5,-1306.36"/>
</g>
<!-- 1221907907336 -->
<g id="node23" class="node">
<title>1221907907336</title>
<polygon fill="lightgrey" stroke="black" points="304,-1414.5 210,-1414.5 210,-1393.75 304,-1393.75 304,-1414.5"/>
<text xml:space="preserve" text-anchor="middle" x="257" y="-1401" font-family="monospace" font-size="10.00">ReluBackward0</text>
</g>
<!-- 1221907907336&#45;&gt;1221907907976 -->
<g id="edge21" class="edge">
<title>1221907907336&#45;&gt;1221907907976</title>
<path fill="none" stroke="black" d="M267.19,-1393.34C275.13,-1385.71 286.37,-1374.92 295.84,-1365.82"/>
<polygon fill="black" stroke="black" points="298.02,-1368.58 302.81,-1359.13 293.17,-1363.53 298.02,-1368.58"/>
</g>
<!-- 1221907907528 -->
<g id="node24" class="node">
<title>1221907907528</title>
<polygon fill="lightgrey" stroke="black" points="313,-1477.62 159,-1477.62 159,-1456.88 313,-1456.88 313,-1477.62"/>
<text xml:space="preserve" text-anchor="middle" x="236" y="-1464.12" font-family="monospace" font-size="10.00">NativeBatchNormBackward</text>
</g>
<!-- 1221907907528&#45;&gt;1221907907336 -->
<g id="edge22" class="edge">
<title>1221907907528&#45;&gt;1221907907336</title>
<path fill="none" stroke="black" d="M239.37,-1456.43C242.24,-1448.09 246.44,-1435.86 250.03,-1425.43"/>
<polygon fill="black" stroke="black" points="253.27,-1426.75 253.21,-1416.15 246.65,-1424.47 253.27,-1426.75"/>
</g>
<!-- 1221907907080 -->
<g id="node25" class="node">
<title>1221907907080</title>
<polygon fill="lightgrey" stroke="black" points="316,-1540.75 156,-1540.75 156,-1520 316,-1520 316,-1540.75"/>
<text xml:space="preserve" text-anchor="middle" x="236" y="-1527.25" font-family="monospace" font-size="10.00">CudnnConvolutionBackward</text>
</g>
<!-- 1221907907080&#45;&gt;1221907907528 -->
<g id="edge23" class="edge">
<title>1221907907080&#45;&gt;1221907907528</title>
<path fill="none" stroke="black" d="M236,-1519.55C236,-1511.4 236,-1499.51 236,-1489.23"/>
<polygon fill="black" stroke="black" points="239.5,-1489.36 236,-1479.36 232.5,-1489.36 239.5,-1489.36"/>
</g>
<!-- 1221907908488 -->
<g id="node26" class="node">
<title>1221907908488</title>
<polygon fill="lightgrey" stroke="black" points="226,-1597.5 132,-1597.5 132,-1576.75 226,-1576.75 226,-1597.5"/>
<text xml:space="preserve" text-anchor="middle" x="179" y="-1584" font-family="monospace" font-size="10.00">ReluBackward0</text>
</g>
<!-- 1221907908488&#45;&gt;1221907907080 -->
<g id="edge24" class="edge">
<title>1221907908488&#45;&gt;1221907907080</title>
<path fill="none" stroke="black" d="M189.19,-1576.34C197.13,-1568.71 208.37,-1557.92 217.84,-1548.82"/>
<polygon fill="black" stroke="black" points="220.02,-1551.58 224.81,-1542.13 215.17,-1546.53 220.02,-1551.58"/>
</g>
<!-- 1221907908744 -->
<g id="node27" class="node">
<title>1221907908744</title>
<polygon fill="lightgrey" stroke="black" points="235,-1660.62 81,-1660.62 81,-1639.88 235,-1639.88 235,-1660.62"/>
<text xml:space="preserve" text-anchor="middle" x="158" y="-1647.12" font-family="monospace" font-size="10.00">NativeBatchNormBackward</text>
</g>
<!-- 1221907908744&#45;&gt;1221907908488 -->
<g id="edge25" class="edge">
<title>1221907908744&#45;&gt;1221907908488</title>
<path fill="none" stroke="black" d="M161.37,-1639.43C164.24,-1631.09 168.44,-1618.86 172.03,-1608.43"/>
<polygon fill="black" stroke="black" points="175.27,-1609.75 175.21,-1599.15 168.65,-1607.47 175.27,-1609.75"/>
</g>
<!-- 1221907907848 -->
<g id="node28" class="node">
<title>1221907907848</title>
<polygon fill="lightgrey" stroke="black" points="238,-1723.75 78,-1723.75 78,-1703 238,-1703 238,-1723.75"/>
<text xml:space="preserve" text-anchor="middle" x="158" y="-1710.25" font-family="monospace" font-size="10.00">CudnnConvolutionBackward</text>
</g>
<!-- 1221907907848&#45;&gt;1221907908744 -->
<g id="edge26" class="edge">
<title>1221907907848&#45;&gt;1221907908744</title>
<path fill="none" stroke="black" d="M158,-1702.55C158,-1694.4 158,-1682.51 158,-1672.23"/>
<polygon fill="black" stroke="black" points="161.5,-1672.36 158,-1662.36 154.5,-1672.36 161.5,-1672.36"/>
</g>
<!-- 1221907908552 -->
<g id="node29" class="node">
<title>1221907908552</title>
<polygon fill="lightgrey" stroke="black" points="148,-1780.5 54,-1780.5 54,-1759.75 148,-1759.75 148,-1780.5"/>
<text xml:space="preserve" text-anchor="middle" x="101" y="-1767" font-family="monospace" font-size="10.00">ReluBackward0</text>
</g>
<!-- 1221907908552&#45;&gt;1221907907848 -->
<g id="edge27" class="edge">
<title>1221907908552&#45;&gt;1221907907848</title>
<path fill="none" stroke="black" d="M111.19,-1759.34C119.13,-1751.71 130.37,-1740.92 139.84,-1731.82"/>
<polygon fill="black" stroke="black" points="142.02,-1734.58 146.81,-1725.13 137.17,-1729.53 142.02,-1734.58"/>
</g>
<!-- 1221907909512 -->
<g id="node30" class="node">
<title>1221907909512</title>
<polygon fill="lightgrey" stroke="black" points="157,-1843.62 3,-1843.62 3,-1822.88 157,-1822.88 157,-1843.62"/>
<text xml:space="preserve" text-anchor="middle" x="80" y="-1830.12" font-family="monospace" font-size="10.00">NativeBatchNormBackward</text>
</g>
<!-- 1221907909512&#45;&gt;1221907908552 -->
<g id="edge28" class="edge">
<title>1221907909512&#45;&gt;1221907908552</title>
<path fill="none" stroke="black" d="M83.37,-1822.43C86.24,-1814.09 90.44,-1801.86 94.03,-1791.43"/>
<polygon fill="black" stroke="black" points="97.27,-1792.75 97.21,-1782.15 90.65,-1790.47 97.27,-1792.75"/>
</g>
<!-- 1221880503752 -->
<g id="node31" class="node">
<title>1221880503752</title>
<polygon fill="lightgrey" stroke="black" points="160,-1906.75 0,-1906.75 0,-1886 160,-1886 160,-1906.75"/>
<text xml:space="preserve" text-anchor="middle" x="80" y="-1893.25" font-family="monospace" font-size="10.00">CudnnConvolutionBackward</text>
</g>
<!-- 1221880503752&#45;&gt;1221907909512 -->
<g id="edge29" class="edge">
<title>1221880503752&#45;&gt;1221907909512</title>
<path fill="none" stroke="black" d="M80,-1885.55C80,-1877.4 80,-1865.51 80,-1855.23"/>
<polygon fill="black" stroke="black" points="83.5,-1855.36 80,-1845.36 76.5,-1855.36 83.5,-1855.36"/>
</g>
<!-- 1221883282184 -->
<g id="node32" class="node">
<title>1221883282184</title>
<polygon fill="lightgrey" stroke="black" points="130,-1963.5 30,-1963.5 30,-1942.75 130,-1942.75 130,-1963.5"/>
<text xml:space="preserve" text-anchor="middle" x="80" y="-1950" font-family="monospace" font-size="10.00">AccumulateGrad</text>
</g>
<!-- 1221883282184&#45;&gt;1221880503752 -->
<g id="edge30" class="edge">
<title>1221883282184&#45;&gt;1221880503752</title>
<path fill="none" stroke="black" d="M80,-1942.34C80,-1935.72 80,-1926.72 80,-1918.52"/>
<polygon fill="black" stroke="black" points="83.5,-1918.59 80,-1908.59 76.5,-1918.59 83.5,-1918.59"/>
</g>
<!-- 1221902401608 -->
<g id="node33" class="node">
<title>1221902401608</title>
<polygon fill="lightblue" stroke="black" points="142,-2033 18,-2033 18,-1999.5 142,-1999.5 142,-2033"/>
<text xml:space="preserve" text-anchor="middle" x="80" y="-2019.5" font-family="monospace" font-size="10.00">Block.conv1.weight</text>
<text xml:space="preserve" text-anchor="middle" x="80" y="-2006.75" font-family="monospace" font-size="10.00"> (32, 1, 3, 3)</text>
</g>
<!-- 1221902401608&#45;&gt;1221883282184 -->
<g id="edge31" class="edge">
<title>1221902401608&#45;&gt;1221883282184</title>
<path fill="none" stroke="black" d="M80,-1999.19C80,-1991.85 80,-1983.07 80,-1975.21"/>
<polygon fill="black" stroke="black" points="83.5,-1975.48 80,-1965.48 76.5,-1975.48 83.5,-1975.48"/>
</g>
<!-- 1221907907912 -->
<g id="node34" class="node">
<title>1221907907912</title>
<polygon fill="lightgrey" stroke="black" points="276,-1780.5 176,-1780.5 176,-1759.75 276,-1759.75 276,-1780.5"/>
<text xml:space="preserve" text-anchor="middle" x="226" y="-1767" font-family="monospace" font-size="10.00">AccumulateGrad</text>
</g>
<!-- 1221907907912&#45;&gt;1221907907848 -->
<g id="edge32" class="edge">
<title>1221907907912&#45;&gt;1221907907848</title>
<path fill="none" stroke="black" d="M213.84,-1759.34C204.17,-1751.55 190.42,-1740.47 178.98,-1731.26"/>
<polygon fill="black" stroke="black" points="181.21,-1728.57 171.23,-1725.03 176.82,-1734.03 181.21,-1728.57"/>
</g>
<!-- 1221902402168 -->
<g id="node35" class="node">
<title>1221902402168</title>
<polygon fill="lightblue" stroke="black" points="299,-1850 175,-1850 175,-1816.5 299,-1816.5 299,-1850"/>
<text xml:space="preserve" text-anchor="middle" x="237" y="-1836.5" font-family="monospace" font-size="10.00">Block.conv2.weight</text>
<text xml:space="preserve" text-anchor="middle" x="237" y="-1823.75" font-family="monospace" font-size="10.00"> (32, 32, 3, 3)</text>
</g>
<!-- 1221902402168&#45;&gt;1221907907912 -->
<g id="edge33" class="edge">
<title>1221902402168&#45;&gt;1221907907912</title>
<path fill="none" stroke="black" d="M234.11,-1816.19C232.79,-1808.85 231.21,-1800.07 229.79,-1792.21"/>
<polygon fill="black" stroke="black" points="233.26,-1791.68 228.04,-1782.46 226.37,-1792.92 233.26,-1791.68"/>
</g>
<!-- 1221907910472 -->
<g id="node36" class="node">
<title>1221907910472</title>
<polygon fill="lightgrey" stroke="black" points="354,-1597.5 254,-1597.5 254,-1576.75 354,-1576.75 354,-1597.5"/>
<text xml:space="preserve" text-anchor="middle" x="304" y="-1584" font-family="monospace" font-size="10.00">AccumulateGrad</text>
</g>
<!-- 1221907910472&#45;&gt;1221907907080 -->
<g id="edge34" class="edge">
<title>1221907910472&#45;&gt;1221907907080</title>
<path fill="none" stroke="black" d="M291.84,-1576.34C282.17,-1568.55 268.42,-1557.47 256.98,-1548.26"/>
<polygon fill="black" stroke="black" points="259.21,-1545.57 249.23,-1542.03 254.82,-1551.03 259.21,-1545.57"/>
</g>
<!-- 1221902402648 -->
<g id="node37" class="node">
<title>1221902402648</title>
<polygon fill="lightblue" stroke="black" points="377,-1667 253,-1667 253,-1633.5 377,-1633.5 377,-1667"/>
<text xml:space="preserve" text-anchor="middle" x="315" y="-1653.5" font-family="monospace" font-size="10.00">Block.conv3.weight</text>
<text xml:space="preserve" text-anchor="middle" x="315" y="-1640.75" font-family="monospace" font-size="10.00"> (64, 32, 3, 3)</text>
</g>
<!-- 1221902402648&#45;&gt;1221907910472 -->
<g id="edge35" class="edge">
<title>1221902402648&#45;&gt;1221907910472</title>
<path fill="none" stroke="black" d="M312.11,-1633.19C310.79,-1625.85 309.21,-1617.07 307.79,-1609.21"/>
<polygon fill="black" stroke="black" points="311.26,-1608.68 306.04,-1599.46 304.37,-1609.92 311.26,-1608.68"/>
</g>
<!-- 1221907907592 -->
<g id="node38" class="node">
<title>1221907907592</title>
<polygon fill="lightgrey" stroke="black" points="432,-1414.5 332,-1414.5 332,-1393.75 432,-1393.75 432,-1414.5"/>
<text xml:space="preserve" text-anchor="middle" x="382" y="-1401" font-family="monospace" font-size="10.00">AccumulateGrad</text>
</g>
<!-- 1221907907592&#45;&gt;1221907907976 -->
<g id="edge36" class="edge">
<title>1221907907592&#45;&gt;1221907907976</title>
<path fill="none" stroke="black" d="M369.84,-1393.34C360.17,-1385.55 346.42,-1374.47 334.98,-1365.26"/>
<polygon fill="black" stroke="black" points="337.21,-1362.57 327.23,-1359.03 332.82,-1368.03 337.21,-1362.57"/>
</g>
<!-- 1221902403128 -->
<g id="node39" class="node">
<title>1221902403128</title>
<polygon fill="lightblue" stroke="black" points="455,-1484 331,-1484 331,-1450.5 455,-1450.5 455,-1484"/>
<text xml:space="preserve" text-anchor="middle" x="393" y="-1470.5" font-family="monospace" font-size="10.00">Block.conv4.weight</text>
<text xml:space="preserve" text-anchor="middle" x="393" y="-1457.75" font-family="monospace" font-size="10.00"> (64, 64, 3, 3)</text>
</g>
<!-- 1221902403128&#45;&gt;1221907907592 -->
<g id="edge37" class="edge">
<title>1221902403128&#45;&gt;1221907907592</title>
<path fill="none" stroke="black" d="M390.11,-1450.19C388.79,-1442.85 387.21,-1434.07 385.79,-1426.21"/>
<polygon fill="black" stroke="black" points="389.26,-1425.68 384.04,-1416.46 382.37,-1426.92 389.26,-1425.68"/>
</g>
<!-- 1221907908680 -->
<g id="node40" class="node">
<title>1221907908680</title>
<polygon fill="lightgrey" stroke="black" points="510,-1231.5 410,-1231.5 410,-1210.75 510,-1210.75 510,-1231.5"/>
<text xml:space="preserve" text-anchor="middle" x="460" y="-1218" font-family="monospace" font-size="10.00">AccumulateGrad</text>
</g>
<!-- 1221907908680&#45;&gt;1221907906824 -->
<g id="edge38" class="edge">
<title>1221907908680&#45;&gt;1221907906824</title>
<path fill="none" stroke="black" d="M447.84,-1210.34C438.17,-1202.55 424.42,-1191.47 412.98,-1182.26"/>
<polygon fill="black" stroke="black" points="415.21,-1179.57 405.23,-1176.03 410.82,-1185.03 415.21,-1179.57"/>
</g>
<!-- 1221902405128 -->
<g id="node41" class="node">
<title>1221902405128</title>
<polygon fill="lightblue" stroke="black" points="533,-1301 409,-1301 409,-1267.5 533,-1267.5 533,-1301"/>
<text xml:space="preserve" text-anchor="middle" x="471" y="-1287.5" font-family="monospace" font-size="10.00">Block.conv5.weight</text>
<text xml:space="preserve" text-anchor="middle" x="471" y="-1274.75" font-family="monospace" font-size="10.00"> (128, 64, 3, 3)</text>
</g>
<!-- 1221902405128&#45;&gt;1221907908680 -->
<g id="edge39" class="edge">
<title>1221902405128&#45;&gt;1221907908680</title>
<path fill="none" stroke="black" d="M468.11,-1267.19C466.79,-1259.85 465.21,-1251.07 463.79,-1243.21"/>
<polygon fill="black" stroke="black" points="467.26,-1242.68 462.04,-1233.46 460.37,-1243.92 467.26,-1242.68"/>
</g>
<!-- 1221907909832 -->
<g id="node42" class="node">
<title>1221907909832</title>
<polygon fill="lightgrey" stroke="black" points="588,-1048.5 488,-1048.5 488,-1027.75 588,-1027.75 588,-1048.5"/>
<text xml:space="preserve" text-anchor="middle" x="538" y="-1035" font-family="monospace" font-size="10.00">AccumulateGrad</text>
</g>
<!-- 1221907909832&#45;&gt;1221880481160 -->
<g id="edge40" class="edge">
<title>1221907909832&#45;&gt;1221880481160</title>
<path fill="none" stroke="black" d="M525.84,-1027.34C516.17,-1019.55 502.42,-1008.47 490.98,-999.26"/>
<polygon fill="black" stroke="black" points="493.21,-996.57 483.23,-993.03 488.82,-1002.03 493.21,-996.57"/>
</g>
<!-- 1221902481992 -->
<g id="node43" class="node">
<title>1221902481992</title>
<polygon fill="lightblue" stroke="black" points="611,-1118 487,-1118 487,-1084.5 611,-1084.5 611,-1118"/>
<text xml:space="preserve" text-anchor="middle" x="549" y="-1104.5" font-family="monospace" font-size="10.00">Block.conv6.weight</text>
<text xml:space="preserve" text-anchor="middle" x="549" y="-1091.75" font-family="monospace" font-size="10.00"> (128, 128, 3, 3)</text>
</g>
<!-- 1221902481992&#45;&gt;1221907909832 -->
<g id="edge41" class="edge">
<title>1221902481992&#45;&gt;1221907909832</title>
<path fill="none" stroke="black" d="M546.11,-1084.19C544.79,-1076.85 543.21,-1068.07 541.79,-1060.21"/>
<polygon fill="black" stroke="black" points="545.26,-1059.68 540.04,-1050.46 538.37,-1060.92 545.26,-1059.68"/>
</g>
<!-- 1221907898824 -->
<g id="node44" class="node">
<title>1221907898824</title>
<polygon fill="lightgrey" stroke="black" points="666,-865.5 566,-865.5 566,-844.75 666,-844.75 666,-865.5"/>
<text xml:space="preserve" text-anchor="middle" x="616" y="-852" font-family="monospace" font-size="10.00">AccumulateGrad</text>
</g>
<!-- 1221907898824&#45;&gt;1221880967816 -->
<g id="edge42" class="edge">
<title>1221907898824&#45;&gt;1221880967816</title>
<path fill="none" stroke="black" d="M603.84,-844.34C594.17,-836.55 580.42,-825.47 568.98,-816.26"/>
<polygon fill="black" stroke="black" points="571.21,-813.57 561.23,-810.03 566.82,-819.03 571.21,-813.57"/>
</g>
<!-- 1221902538376 -->
<g id="node45" class="node">
<title>1221902538376</title>
<polygon fill="lightblue" stroke="black" points="689,-935 565,-935 565,-901.5 689,-901.5 689,-935"/>
<text xml:space="preserve" text-anchor="middle" x="627" y="-921.5" font-family="monospace" font-size="10.00">Block.conv7.weight</text>
<text xml:space="preserve" text-anchor="middle" x="627" y="-908.75" font-family="monospace" font-size="10.00"> (128, 128, 3, 3)</text>
</g>
<!-- 1221902538376&#45;&gt;1221907898824 -->
<g id="edge43" class="edge">
<title>1221902538376&#45;&gt;1221907898824</title>
<path fill="none" stroke="black" d="M624.11,-901.19C622.79,-893.85 621.21,-885.07 619.79,-877.21"/>
<polygon fill="black" stroke="black" points="623.26,-876.68 618.04,-867.46 616.37,-877.92 623.26,-876.68"/>
</g>
<!-- 1221907864840 -->
<g id="node46" class="node">
<title>1221907864840</title>
<polygon fill="lightgrey" stroke="black" points="744,-682.5 644,-682.5 644,-661.75 744,-661.75 744,-682.5"/>
<text xml:space="preserve" text-anchor="middle" x="694" y="-669" font-family="monospace" font-size="10.00">AccumulateGrad</text>
</g>
<!-- 1221907864840&#45;&gt;1221907864200 -->
<g id="edge44" class="edge">
<title>1221907864840&#45;&gt;1221907864200</title>
<path fill="none" stroke="black" d="M681.84,-661.34C672.17,-653.55 658.42,-642.47 646.98,-633.26"/>
<polygon fill="black" stroke="black" points="649.21,-630.57 639.23,-627.03 644.82,-636.03 649.21,-630.57"/>
</g>
<!-- 1221902598856 -->
<g id="node47" class="node">
<title>1221902598856</title>
<polygon fill="lightblue" stroke="black" points="767,-752 643,-752 643,-718.5 767,-718.5 767,-752"/>
<text xml:space="preserve" text-anchor="middle" x="705" y="-738.5" font-family="monospace" font-size="10.00">Block.conv8.weight</text>
<text xml:space="preserve" text-anchor="middle" x="705" y="-725.75" font-family="monospace" font-size="10.00"> (128, 128, 3, 3)</text>
</g>
<!-- 1221902598856&#45;&gt;1221907864840 -->
<g id="edge45" class="edge">
<title>1221902598856&#45;&gt;1221907864840</title>
<path fill="none" stroke="black" d="M702.11,-718.19C700.79,-710.85 699.21,-702.07 697.79,-694.21"/>
<polygon fill="black" stroke="black" points="701.26,-693.68 696.04,-684.46 694.37,-694.92 701.26,-693.68"/>
</g>
<!-- 1221907864328 -->
<g id="node48" class="node">
<title>1221907864328</title>
<polygon fill="lightgrey" stroke="black" points="789,-430 719,-430 719,-409.25 789,-409.25 789,-430"/>
<text xml:space="preserve" text-anchor="middle" x="754" y="-416.5" font-family="monospace" font-size="10.00">TBackward</text>
</g>
<!-- 1221907864328&#45;&gt;1221907862536 -->
<g id="edge46" class="edge">
<title>1221907864328&#45;&gt;1221907862536</title>
<path fill="none" stroke="black" d="M731.12,-408.84C711.09,-400.27 681.76,-387.73 659.17,-378.06"/>
<polygon fill="black" stroke="black" points="660.65,-374.89 650.08,-374.17 657.9,-381.32 660.65,-374.89"/>
</g>
<!-- 1221880970248 -->
<g id="node49" class="node">
<title>1221880970248</title>
<polygon fill="lightgrey" stroke="black" points="836,-493.12 736,-493.12 736,-472.38 836,-472.38 836,-493.12"/>
<text xml:space="preserve" text-anchor="middle" x="786" y="-479.62" font-family="monospace" font-size="10.00">AccumulateGrad</text>
</g>
<!-- 1221880970248&#45;&gt;1221907864328 -->
<g id="edge47" class="edge">
<title>1221880970248&#45;&gt;1221907864328</title>
<path fill="none" stroke="black" d="M780.86,-471.93C776.4,-463.41 769.81,-450.83 764.28,-440.26"/>
<polygon fill="black" stroke="black" points="767.46,-438.8 759.73,-431.56 761.26,-442.04 767.46,-438.8"/>
</g>
<!-- 1221902601736 -->
<g id="node50" class="node">
<title>1221902601736</title>
<polygon fill="lightblue" stroke="black" points="830,-569 742,-569 742,-535.5 830,-535.5 830,-569"/>
<text xml:space="preserve" text-anchor="middle" x="786" y="-555.5" font-family="monospace" font-size="10.00">fc1.0.weight</text>
<text xml:space="preserve" text-anchor="middle" x="786" y="-542.75" font-family="monospace" font-size="10.00"> (128, 8192)</text>
</g>
<!-- 1221902601736&#45;&gt;1221880970248 -->
<g id="edge48" class="edge">
<title>1221902601736&#45;&gt;1221880970248</title>
<path fill="none" stroke="black" d="M786,-535.25C786,-526.15 786,-514.64 786,-504.82"/>
<polygon fill="black" stroke="black" points="789.5,-505.09 786,-495.09 782.5,-505.09 789.5,-505.09"/>
</g>
<!-- 1221907992648 -->
<g id="node51" class="node">
<title>1221907992648</title>
<polygon fill="lightgrey" stroke="black" points="720,-146.25 620,-146.25 620,-125.5 720,-125.5 720,-146.25"/>
<text xml:space="preserve" text-anchor="middle" x="670" y="-132.75" font-family="monospace" font-size="10.00">ExpandBackward</text>
</g>
<!-- 1221907992648&#45;&gt;1221907995976 -->
<g id="edge49" class="edge">
<title>1221907992648&#45;&gt;1221907995976</title>
<path fill="none" stroke="black" d="M662.49,-125.09C656.88,-117.77 649.03,-107.54 642.24,-98.69"/>
<polygon fill="black" stroke="black" points="645.23,-96.83 636.36,-91.03 639.67,-101.09 645.23,-96.83"/>
</g>
<!-- 1221880501704 -->
<g id="node52" class="node">
<title>1221880501704</title>
<polygon fill="lightgrey" stroke="black" points="729,-203 617,-203 617,-182.25 729,-182.25 729,-203"/>
<text xml:space="preserve" text-anchor="middle" x="673" y="-189.5" font-family="monospace" font-size="10.00">ClampMinBackward</text>
</g>
<!-- 1221880501704&#45;&gt;1221907992648 -->
<g id="edge50" class="edge">
<title>1221880501704&#45;&gt;1221907992648</title>
<path fill="none" stroke="black" d="M672.46,-181.84C672.1,-175.22 671.61,-166.22 671.16,-158.02"/>
<polygon fill="black" stroke="black" points="674.66,-157.88 670.61,-148.09 667.67,-158.27 674.66,-157.88"/>
</g>
<!-- 1221907899656&#45;&gt;1221880501704 -->
<g id="edge51" class="edge">
<title>1221907899656&#45;&gt;1221880501704</title>
<path fill="none" stroke="black" d="M668.89,-238.59C669.5,-231.97 670.32,-222.97 671.07,-214.77"/>
<polygon fill="black" stroke="black" points="674.55,-215.11 671.98,-204.84 667.58,-214.48 674.55,-215.11"/>
</g>
</g>
</svg>
