<?xml version="1.0" encoding="UTF-8" standalone="no"?>
<!DOCTYPE svg PUBLIC "-//W3C//DTD SVG 1.1//EN"
 "http://www.w3.org/Graphics/SVG/1.1/DTD/svg11.dtd">
<!-- Generated by graphviz version 13.1.0 (20250701.0955)
 -->
<!-- Pages: 1 -->
<svg width="523pt" height="1145pt"
 viewBox="0.00 0.00 523.00 1145.00" xmlns="http://www.w3.org/2000/svg" xmlns:xlink="http://www.w3.org/1999/xlink">
<g id="graph0" class="graph" transform="scale(0.561 0.561) rotate(0) translate(4 2037)">
<polygon fill="white" stroke="none" points="-4,4 -4,-2037 928,-2037 928,4 -4,4"/>
<!-- 1980534406904 -->
<g id="node1" class="node">
<title>1980534406904</title>
<polygon fill="#caff70" stroke="black" points="742,-32.75 660,-32.75 660,0 742,0 742,-32.75"/>
<text xml:space="preserve" text-anchor="middle" x="701" y="-7.25" font-family="monospace" font-size="10.00"> (144, 128)</text>
</g>
<!-- 1981446752776 -->
<g id="node2" class="node">
<title>1981446752776</title>
<polygon fill="lightgrey" stroke="black" points="745,-89.5 657,-89.5 657,-68.75 745,-68.75 745,-89.5"/>
<text xml:space="preserve" text-anchor="middle" x="701" y="-76" font-family="monospace" font-size="10.00">DivBackward0</text>
</g>
<!-- 1981446752776&#45;&gt;1980534406904 -->
<g id="edge53" class="edge">
<title>1981446752776&#45;&gt;1980534406904</title>
<path fill="none" stroke="black" d="M701,-68.36C701,-61.89 701,-53.05 701,-44.55"/>
<polygon fill="black" stroke="black" points="704.5,-44.55 701,-34.55 697.5,-44.55 704.5,-44.55"/>
</g>
<!-- 1981446753224 -->
<g id="node3" class="node">
<title>1981446753224</title>
<polygon fill="lightgrey" stroke="black" points="743,-316.5 655,-316.5 655,-295.75 743,-295.75 743,-316.5"/>
<text xml:space="preserve" text-anchor="middle" x="699" y="-303" font-family="monospace" font-size="10.00">ViewBackward</text>
</g>
<!-- 1981446753224&#45;&gt;1981446752776 -->
<g id="edge1" class="edge">
<title>1981446753224&#45;&gt;1981446752776</title>
<path fill="none" stroke="black" d="M695.34,-295.55C692.05,-286.48 687.36,-272.39 685,-259.75 674.03,-201.1 671.82,-183.91 684,-125.5 685.76,-117.08 688.82,-108.14 691.87,-100.45"/>
<polygon fill="black" stroke="black" points="695.05,-101.92 695.72,-91.35 688.6,-99.19 695.05,-101.92"/>
</g>
<!-- 1981446640584 -->
<g id="node53" class="node">
<title>1981446640584</title>
<polygon fill="lightgrey" stroke="black" points="788,-259.75 694,-259.75 694,-239 788,-239 788,-259.75"/>
<text xml:space="preserve" text-anchor="middle" x="741" y="-246.25" font-family="monospace" font-size="10.00">NormBackward1</text>
</g>
<!-- 1981446753224&#45;&gt;1981446640584 -->
<g id="edge52" class="edge">
<title>1981446753224&#45;&gt;1981446640584</title>
<path fill="none" stroke="black" d="M706.51,-295.34C712.12,-288.02 719.97,-277.79 726.76,-268.94"/>
<polygon fill="black" stroke="black" points="729.33,-271.34 732.64,-261.28 723.77,-267.08 729.33,-271.34"/>
</g>
<!-- 1981446641992 -->
<g id="node4" class="node">
<title>1981446641992</title>
<polygon fill="lightgrey" stroke="black" points="746,-373.25 652,-373.25 652,-352.5 746,-352.5 746,-373.25"/>
<text xml:space="preserve" text-anchor="middle" x="699" y="-359.75" font-family="monospace" font-size="10.00">AddmmBackward</text>
</g>
<!-- 1981446641992&#45;&gt;1981446753224 -->
<g id="edge2" class="edge">
<title>1981446641992&#45;&gt;1981446753224</title>
<path fill="none" stroke="black" d="M699,-352.09C699,-345.47 699,-336.47 699,-328.27"/>
<polygon fill="black" stroke="black" points="702.5,-328.34 699,-318.34 695.5,-328.34 702.5,-328.34"/>
</g>
<!-- 1981446643400 -->
<g id="node5" class="node">
<title>1981446643400</title>
<polygon fill="lightgrey" stroke="black" points="608,-430 508,-430 508,-409.25 608,-409.25 608,-430"/>
<text xml:space="preserve" text-anchor="middle" x="558" y="-416.5" font-family="monospace" font-size="10.00">AccumulateGrad</text>
</g>
<!-- 1981446643400&#45;&gt;1981446641992 -->
<g id="edge3" class="edge">
<title>1981446643400&#45;&gt;1981446641992</title>
<path fill="none" stroke="black" d="M583.21,-408.84C605.56,-400.16 638.46,-387.38 663.48,-377.67"/>
<polygon fill="black" stroke="black" points="664.54,-381.01 672.6,-374.13 662.01,-374.48 664.54,-381.01"/>
</g>
<!-- 1980408852056 -->
<g id="node6" class="node">
<title>1980408852056</title>
<polygon fill="lightblue" stroke="black" points="589,-499.5 471,-499.5 471,-466 589,-466 589,-499.5"/>
<text xml:space="preserve" text-anchor="middle" x="530" y="-486" font-family="monospace" font-size="10.00">netAS1.fc1.0.bias</text>
<text xml:space="preserve" text-anchor="middle" x="530" y="-473.25" font-family="monospace" font-size="10.00"> (128)</text>
</g>
<!-- 1980408852056&#45;&gt;1981446643400 -->
<g id="edge4" class="edge">
<title>1980408852056&#45;&gt;1981446643400</title>
<path fill="none" stroke="black" d="M537.36,-465.69C540.84,-458.09 545.03,-448.94 548.73,-440.87"/>
<polygon fill="black" stroke="black" points="551.88,-442.39 552.86,-431.84 545.51,-439.48 551.88,-442.39"/>
</g>
<!-- 1981446642504 -->
<g id="node7" class="node">
<title>1981446642504</title>
<polygon fill="lightgrey" stroke="black" points="743,-430 655,-430 655,-409.25 743,-409.25 743,-430"/>
<text xml:space="preserve" text-anchor="middle" x="699" y="-416.5" font-family="monospace" font-size="10.00">ViewBackward</text>
</g>
<!-- 1981446642504&#45;&gt;1981446641992 -->
<g id="edge5" class="edge">
<title>1981446642504&#45;&gt;1981446641992</title>
<path fill="none" stroke="black" d="M699,-408.84C699,-402.22 699,-393.22 699,-385.02"/>
<polygon fill="black" stroke="black" points="702.5,-385.09 699,-375.09 695.5,-385.09 702.5,-385.09"/>
</g>
<!-- 1981446642888 -->
<g id="node8" class="node">
<title>1981446642888</title>
<polygon fill="lightgrey" stroke="black" points="791,-493.12 607,-493.12 607,-472.38 791,-472.38 791,-493.12"/>
<text xml:space="preserve" text-anchor="middle" x="699" y="-479.62" font-family="monospace" font-size="10.00">MaxPool2DWithIndicesBackward</text>
</g>
<!-- 1981446642888&#45;&gt;1981446642504 -->
<g id="edge6" class="edge">
<title>1981446642888&#45;&gt;1981446642504</title>
<path fill="none" stroke="black" d="M699,-471.93C699,-463.77 699,-451.88 699,-441.6"/>
<polygon fill="black" stroke="black" points="702.5,-441.73 699,-431.73 695.5,-441.73 702.5,-441.73"/>
</g>
<!-- 1981446642056 -->
<g id="node9" class="node">
<title>1981446642056</title>
<polygon fill="lightgrey" stroke="black" points="776,-562.62 622,-562.62 622,-541.88 776,-541.88 776,-562.62"/>
<text xml:space="preserve" text-anchor="middle" x="699" y="-549.12" font-family="monospace" font-size="10.00">NativeBatchNormBackward</text>
</g>
<!-- 1981446642056&#45;&gt;1981446642888 -->
<g id="edge7" class="edge">
<title>1981446642056&#45;&gt;1981446642888</title>
<path fill="none" stroke="black" d="M699,-541.58C699,-531.96 699,-516.88 699,-504.54"/>
<polygon fill="black" stroke="black" points="702.5,-504.92 699,-494.92 695.5,-504.92 702.5,-504.92"/>
</g>
<!-- 1981446642568 -->
<g id="node10" class="node">
<title>1981446642568</title>
<polygon fill="lightgrey" stroke="black" points="779,-625.75 619,-625.75 619,-605 779,-605 779,-625.75"/>
<text xml:space="preserve" text-anchor="middle" x="699" y="-612.25" font-family="monospace" font-size="10.00">CudnnConvolutionBackward</text>
</g>
<!-- 1981446642568&#45;&gt;1981446642056 -->
<g id="edge8" class="edge">
<title>1981446642568&#45;&gt;1981446642056</title>
<path fill="none" stroke="black" d="M699,-604.55C699,-596.4 699,-584.51 699,-574.23"/>
<polygon fill="black" stroke="black" points="702.5,-574.36 699,-564.36 695.5,-574.36 702.5,-574.36"/>
</g>
<!-- 1981446643464 -->
<g id="node11" class="node">
<title>1981446643464</title>
<polygon fill="lightgrey" stroke="black" points="689,-682.5 595,-682.5 595,-661.75 689,-661.75 689,-682.5"/>
<text xml:space="preserve" text-anchor="middle" x="642" y="-669" font-family="monospace" font-size="10.00">ReluBackward0</text>
</g>
<!-- 1981446643464&#45;&gt;1981446642568 -->
<g id="edge9" class="edge">
<title>1981446643464&#45;&gt;1981446642568</title>
<path fill="none" stroke="black" d="M652.19,-661.34C660.13,-653.71 671.37,-642.92 680.84,-633.82"/>
<polygon fill="black" stroke="black" points="683.02,-636.58 687.81,-627.13 678.17,-631.53 683.02,-636.58"/>
</g>
<!-- 1981446624328 -->
<g id="node12" class="node">
<title>1981446624328</title>
<polygon fill="lightgrey" stroke="black" points="688,-745.62 534,-745.62 534,-724.88 688,-724.88 688,-745.62"/>
<text xml:space="preserve" text-anchor="middle" x="611" y="-732.12" font-family="monospace" font-size="10.00">NativeBatchNormBackward</text>
</g>
<!-- 1981446624328&#45;&gt;1981446643464 -->
<g id="edge10" class="edge">
<title>1981446624328&#45;&gt;1981446643464</title>
<path fill="none" stroke="black" d="M615.98,-724.43C620.3,-715.91 626.68,-703.33 632.04,-692.76"/>
<polygon fill="black" stroke="black" points="635.05,-694.57 636.45,-684.07 628.8,-691.41 635.05,-694.57"/>
</g>
<!-- 1981446623496 -->
<g id="node13" class="node">
<title>1981446623496</title>
<polygon fill="lightgrey" stroke="black" points="691,-808.75 531,-808.75 531,-788 691,-788 691,-808.75"/>
<text xml:space="preserve" text-anchor="middle" x="611" y="-795.25" font-family="monospace" font-size="10.00">CudnnConvolutionBackward</text>
</g>
<!-- 1981446623496&#45;&gt;1981446624328 -->
<g id="edge11" class="edge">
<title>1981446623496&#45;&gt;1981446624328</title>
<path fill="none" stroke="black" d="M611,-787.55C611,-779.4 611,-767.51 611,-757.23"/>
<polygon fill="black" stroke="black" points="614.5,-757.36 611,-747.36 607.5,-757.36 614.5,-757.36"/>
</g>
<!-- 1981446621640 -->
<g id="node14" class="node">
<title>1981446621640</title>
<polygon fill="lightgrey" stroke="black" points="601,-865.5 507,-865.5 507,-844.75 601,-844.75 601,-865.5"/>
<text xml:space="preserve" text-anchor="middle" x="554" y="-852" font-family="monospace" font-size="10.00">ReluBackward0</text>
</g>
<!-- 1981446621640&#45;&gt;1981446623496 -->
<g id="edge12" class="edge">
<title>1981446621640&#45;&gt;1981446623496</title>
<path fill="none" stroke="black" d="M564.19,-844.34C572.13,-836.71 583.37,-825.92 592.84,-816.82"/>
<polygon fill="black" stroke="black" points="595.02,-819.58 599.81,-810.13 590.17,-814.53 595.02,-819.58"/>
</g>
<!-- 1981446619464 -->
<g id="node15" class="node">
<title>1981446619464</title>
<polygon fill="lightgrey" stroke="black" points="600,-928.62 446,-928.62 446,-907.88 600,-907.88 600,-928.62"/>
<text xml:space="preserve" text-anchor="middle" x="523" y="-915.12" font-family="monospace" font-size="10.00">NativeBatchNormBackward</text>
</g>
<!-- 1981446619464&#45;&gt;1981446621640 -->
<g id="edge13" class="edge">
<title>1981446619464&#45;&gt;1981446621640</title>
<path fill="none" stroke="black" d="M527.98,-907.43C532.3,-898.91 538.68,-886.33 544.04,-875.76"/>
<polygon fill="black" stroke="black" points="547.05,-877.57 548.45,-867.07 540.8,-874.41 547.05,-877.57"/>
</g>
<!-- 1981446622024 -->
<g id="node16" class="node">
<title>1981446622024</title>
<polygon fill="lightgrey" stroke="black" points="603,-991.75 443,-991.75 443,-971 603,-971 603,-991.75"/>
<text xml:space="preserve" text-anchor="middle" x="523" y="-978.25" font-family="monospace" font-size="10.00">CudnnConvolutionBackward</text>
</g>
<!-- 1981446622024&#45;&gt;1981446619464 -->
<g id="edge14" class="edge">
<title>1981446622024&#45;&gt;1981446619464</title>
<path fill="none" stroke="black" d="M523,-970.55C523,-962.4 523,-950.51 523,-940.23"/>
<polygon fill="black" stroke="black" points="526.5,-940.36 523,-930.36 519.5,-940.36 526.5,-940.36"/>
</g>
<!-- 1980534459656 -->
<g id="node17" class="node">
<title>1980534459656</title>
<polygon fill="lightgrey" stroke="black" points="513,-1048.5 419,-1048.5 419,-1027.75 513,-1027.75 513,-1048.5"/>
<text xml:space="preserve" text-anchor="middle" x="466" y="-1035" font-family="monospace" font-size="10.00">ReluBackward0</text>
</g>
<!-- 1980534459656&#45;&gt;1981446622024 -->
<g id="edge15" class="edge">
<title>1980534459656&#45;&gt;1981446622024</title>
<path fill="none" stroke="black" d="M476.19,-1027.34C484.13,-1019.71 495.37,-1008.92 504.84,-999.82"/>
<polygon fill="black" stroke="black" points="507.02,-1002.58 511.81,-993.13 502.17,-997.53 507.02,-1002.58"/>
</g>
<!-- 1981446720968 -->
<g id="node18" class="node">
<title>1981446720968</title>
<polygon fill="lightgrey" stroke="black" points="512,-1111.62 358,-1111.62 358,-1090.88 512,-1090.88 512,-1111.62"/>
<text xml:space="preserve" text-anchor="middle" x="435" y="-1098.12" font-family="monospace" font-size="10.00">NativeBatchNormBackward</text>
</g>
<!-- 1981446720968&#45;&gt;1980534459656 -->
<g id="edge16" class="edge">
<title>1981446720968&#45;&gt;1980534459656</title>
<path fill="none" stroke="black" d="M439.98,-1090.43C444.3,-1081.91 450.68,-1069.33 456.04,-1058.76"/>
<polygon fill="black" stroke="black" points="459.05,-1060.57 460.45,-1050.07 452.8,-1057.41 459.05,-1060.57"/>
</g>
<!-- 1981446718280 -->
<g id="node19" class="node">
<title>1981446718280</title>
<polygon fill="lightgrey" stroke="black" points="515,-1174.75 355,-1174.75 355,-1154 515,-1154 515,-1174.75"/>
<text xml:space="preserve" text-anchor="middle" x="435" y="-1161.25" font-family="monospace" font-size="10.00">CudnnConvolutionBackward</text>
</g>
<!-- 1981446718280&#45;&gt;1981446720968 -->
<g id="edge17" class="edge">
<title>1981446718280&#45;&gt;1981446720968</title>
<path fill="none" stroke="black" d="M435,-1153.55C435,-1145.4 435,-1133.51 435,-1123.23"/>
<polygon fill="black" stroke="black" points="438.5,-1123.36 435,-1113.36 431.5,-1123.36 438.5,-1123.36"/>
</g>
<!-- 1981446720200 -->
<g id="node20" class="node">
<title>1981446720200</title>
<polygon fill="lightgrey" stroke="black" points="425,-1231.5 331,-1231.5 331,-1210.75 425,-1210.75 425,-1231.5"/>
<text xml:space="preserve" text-anchor="middle" x="378" y="-1218" font-family="monospace" font-size="10.00">ReluBackward0</text>
</g>
<!-- 1981446720200&#45;&gt;1981446718280 -->
<g id="edge18" class="edge">
<title>1981446720200&#45;&gt;1981446718280</title>
<path fill="none" stroke="black" d="M388.19,-1210.34C396.13,-1202.71 407.37,-1191.92 416.84,-1182.82"/>
<polygon fill="black" stroke="black" points="419.02,-1185.58 423.81,-1176.13 414.17,-1180.53 419.02,-1185.58"/>
</g>
<!-- 1981446720712 -->
<g id="node21" class="node">
<title>1981446720712</title>
<polygon fill="lightgrey" stroke="black" points="424,-1294.62 270,-1294.62 270,-1273.88 424,-1273.88 424,-1294.62"/>
<text xml:space="preserve" text-anchor="middle" x="347" y="-1281.12" font-family="monospace" font-size="10.00">NativeBatchNormBackward</text>
</g>
<!-- 1981446720712&#45;&gt;1981446720200 -->
<g id="edge19" class="edge">
<title>1981446720712&#45;&gt;1981446720200</title>
<path fill="none" stroke="black" d="M351.98,-1273.43C356.3,-1264.91 362.68,-1252.33 368.04,-1241.76"/>
<polygon fill="black" stroke="black" points="371.05,-1243.57 372.45,-1233.07 364.8,-1240.41 371.05,-1243.57"/>
</g>
<!-- 1981446717512 -->
<g id="node22" class="node">
<title>1981446717512</title>
<polygon fill="lightgrey" stroke="black" points="427,-1357.75 267,-1357.75 267,-1337 427,-1337 427,-1357.75"/>
<text xml:space="preserve" text-anchor="middle" x="347" y="-1344.25" font-family="monospace" font-size="10.00">CudnnConvolutionBackward</text>
</g>
<!-- 1981446717512&#45;&gt;1981446720712 -->
<g id="edge20" class="edge">
<title>1981446717512&#45;&gt;1981446720712</title>
<path fill="none" stroke="black" d="M347,-1336.55C347,-1328.4 347,-1316.51 347,-1306.23"/>
<polygon fill="black" stroke="black" points="350.5,-1306.36 347,-1296.36 343.5,-1306.36 350.5,-1306.36"/>
</g>
<!-- 1981446717832 -->
<g id="node23" class="node">
<title>1981446717832</title>
<polygon fill="lightgrey" stroke="black" points="337,-1414.5 243,-1414.5 243,-1393.75 337,-1393.75 337,-1414.5"/>
<text xml:space="preserve" text-anchor="middle" x="290" y="-1401" font-family="monospace" font-size="10.00">ReluBackward0</text>
</g>
<!-- 1981446717832&#45;&gt;1981446717512 -->
<g id="edge21" class="edge">
<title>1981446717832&#45;&gt;1981446717512</title>
<path fill="none" stroke="black" d="M300.19,-1393.34C308.13,-1385.71 319.37,-1374.92 328.84,-1365.82"/>
<polygon fill="black" stroke="black" points="331.02,-1368.58 335.81,-1359.13 326.17,-1363.53 331.02,-1368.58"/>
</g>
<!-- 1981446719624 -->
<g id="node24" class="node">
<title>1981446719624</title>
<polygon fill="lightgrey" stroke="black" points="336,-1477.62 182,-1477.62 182,-1456.88 336,-1456.88 336,-1477.62"/>
<text xml:space="preserve" text-anchor="middle" x="259" y="-1464.12" font-family="monospace" font-size="10.00">NativeBatchNormBackward</text>
</g>
<!-- 1981446719624&#45;&gt;1981446717832 -->
<g id="edge22" class="edge">
<title>1981446719624&#45;&gt;1981446717832</title>
<path fill="none" stroke="black" d="M263.98,-1456.43C268.3,-1447.91 274.68,-1435.33 280.04,-1424.76"/>
<polygon fill="black" stroke="black" points="283.05,-1426.57 284.45,-1416.07 276.8,-1423.41 283.05,-1426.57"/>
</g>
<!-- 1981446718792 -->
<g id="node25" class="node">
<title>1981446718792</title>
<polygon fill="lightgrey" stroke="black" points="339,-1540.75 179,-1540.75 179,-1520 339,-1520 339,-1540.75"/>
<text xml:space="preserve" text-anchor="middle" x="259" y="-1527.25" font-family="monospace" font-size="10.00">CudnnConvolutionBackward</text>
</g>
<!-- 1981446718792&#45;&gt;1981446719624 -->
<g id="edge23" class="edge">
<title>1981446718792&#45;&gt;1981446719624</title>
<path fill="none" stroke="black" d="M259,-1519.55C259,-1511.4 259,-1499.51 259,-1489.23"/>
<polygon fill="black" stroke="black" points="262.5,-1489.36 259,-1479.36 255.5,-1489.36 262.5,-1489.36"/>
</g>
<!-- 1981446719368 -->
<g id="node26" class="node">
<title>1981446719368</title>
<polygon fill="lightgrey" stroke="black" points="249,-1597.5 155,-1597.5 155,-1576.75 249,-1576.75 249,-1597.5"/>
<text xml:space="preserve" text-anchor="middle" x="202" y="-1584" font-family="monospace" font-size="10.00">ReluBackward0</text>
</g>
<!-- 1981446719368&#45;&gt;1981446718792 -->
<g id="edge24" class="edge">
<title>1981446719368&#45;&gt;1981446718792</title>
<path fill="none" stroke="black" d="M212.19,-1576.34C220.13,-1568.71 231.37,-1557.92 240.84,-1548.82"/>
<polygon fill="black" stroke="black" points="243.02,-1551.58 247.81,-1542.13 238.17,-1546.53 243.02,-1551.58"/>
</g>
<!-- 1981446795592 -->
<g id="node27" class="node">
<title>1981446795592</title>
<polygon fill="lightgrey" stroke="black" points="248,-1660.62 94,-1660.62 94,-1639.88 248,-1639.88 248,-1660.62"/>
<text xml:space="preserve" text-anchor="middle" x="171" y="-1647.12" font-family="monospace" font-size="10.00">NativeBatchNormBackward</text>
</g>
<!-- 1981446795592&#45;&gt;1981446719368 -->
<g id="edge25" class="edge">
<title>1981446795592&#45;&gt;1981446719368</title>
<path fill="none" stroke="black" d="M175.98,-1639.43C180.3,-1630.91 186.68,-1618.33 192.04,-1607.76"/>
<polygon fill="black" stroke="black" points="195.05,-1609.57 196.45,-1599.07 188.8,-1606.41 195.05,-1609.57"/>
</g>
<!-- 1981446795784 -->
<g id="node28" class="node">
<title>1981446795784</title>
<polygon fill="lightgrey" stroke="black" points="251,-1723.75 91,-1723.75 91,-1703 251,-1703 251,-1723.75"/>
<text xml:space="preserve" text-anchor="middle" x="171" y="-1710.25" font-family="monospace" font-size="10.00">CudnnConvolutionBackward</text>
</g>
<!-- 1981446795784&#45;&gt;1981446795592 -->
<g id="edge26" class="edge">
<title>1981446795784&#45;&gt;1981446795592</title>
<path fill="none" stroke="black" d="M171,-1702.55C171,-1694.4 171,-1682.51 171,-1672.23"/>
<polygon fill="black" stroke="black" points="174.5,-1672.36 171,-1662.36 167.5,-1672.36 174.5,-1672.36"/>
</g>
<!-- 1981446796168 -->
<g id="node29" class="node">
<title>1981446796168</title>
<polygon fill="lightgrey" stroke="black" points="161,-1780.5 67,-1780.5 67,-1759.75 161,-1759.75 161,-1780.5"/>
<text xml:space="preserve" text-anchor="middle" x="114" y="-1767" font-family="monospace" font-size="10.00">ReluBackward0</text>
</g>
<!-- 1981446796168&#45;&gt;1981446795784 -->
<g id="edge27" class="edge">
<title>1981446796168&#45;&gt;1981446795784</title>
<path fill="none" stroke="black" d="M124.19,-1759.34C132.13,-1751.71 143.37,-1740.92 152.84,-1731.82"/>
<polygon fill="black" stroke="black" points="155.02,-1734.58 159.81,-1725.13 150.17,-1729.53 155.02,-1734.58"/>
</g>
<!-- 1981446796488 -->
<g id="node30" class="node">
<title>1981446796488</title>
<polygon fill="lightgrey" stroke="black" points="160,-1843.62 6,-1843.62 6,-1822.88 160,-1822.88 160,-1843.62"/>
<text xml:space="preserve" text-anchor="middle" x="83" y="-1830.12" font-family="monospace" font-size="10.00">NativeBatchNormBackward</text>
</g>
<!-- 1981446796488&#45;&gt;1981446796168 -->
<g id="edge28" class="edge">
<title>1981446796488&#45;&gt;1981446796168</title>
<path fill="none" stroke="black" d="M87.98,-1822.43C92.3,-1813.91 98.68,-1801.33 104.04,-1790.76"/>
<polygon fill="black" stroke="black" points="107.05,-1792.57 108.45,-1782.07 100.8,-1789.41 107.05,-1792.57"/>
</g>
<!-- 1981446796680 -->
<g id="node31" class="node">
<title>1981446796680</title>
<polygon fill="lightgrey" stroke="black" points="163,-1906.75 3,-1906.75 3,-1886 163,-1886 163,-1906.75"/>
<text xml:space="preserve" text-anchor="middle" x="83" y="-1893.25" font-family="monospace" font-size="10.00">CudnnConvolutionBackward</text>
</g>
<!-- 1981446796680&#45;&gt;1981446796488 -->
<g id="edge29" class="edge">
<title>1981446796680&#45;&gt;1981446796488</title>
<path fill="none" stroke="black" d="M83,-1885.55C83,-1877.4 83,-1865.51 83,-1855.23"/>
<polygon fill="black" stroke="black" points="86.5,-1855.36 83,-1845.36 79.5,-1855.36 86.5,-1855.36"/>
</g>
<!-- 1981446797128 -->
<g id="node32" class="node">
<title>1981446797128</title>
<polygon fill="lightgrey" stroke="black" points="133,-1963.5 33,-1963.5 33,-1942.75 133,-1942.75 133,-1963.5"/>
<text xml:space="preserve" text-anchor="middle" x="83" y="-1950" font-family="monospace" font-size="10.00">AccumulateGrad</text>
</g>
<!-- 1981446797128&#45;&gt;1981446796680 -->
<g id="edge30" class="edge">
<title>1981446797128&#45;&gt;1981446796680</title>
<path fill="none" stroke="black" d="M83,-1942.34C83,-1935.72 83,-1926.72 83,-1918.52"/>
<polygon fill="black" stroke="black" points="86.5,-1918.59 83,-1908.59 79.5,-1918.59 86.5,-1918.59"/>
</g>
<!-- 1980408389528 -->
<g id="node33" class="node">
<title>1980408389528</title>
<polygon fill="lightblue" stroke="black" points="166,-2033 0,-2033 0,-1999.5 166,-1999.5 166,-2033"/>
<text xml:space="preserve" text-anchor="middle" x="83" y="-2019.5" font-family="monospace" font-size="10.00">netAS1.Block.conv1.weight</text>
<text xml:space="preserve" text-anchor="middle" x="83" y="-2006.75" font-family="monospace" font-size="10.00"> (32, 1, 3, 3)</text>
</g>
<!-- 1980408389528&#45;&gt;1981446797128 -->
<g id="edge31" class="edge">
<title>1980408389528&#45;&gt;1981446797128</title>
<path fill="none" stroke="black" d="M83,-1999.19C83,-1991.85 83,-1983.07 83,-1975.21"/>
<polygon fill="black" stroke="black" points="86.5,-1975.48 83,-1965.48 79.5,-1975.48 86.5,-1975.48"/>
</g>
<!-- 1981446796296 -->
<g id="node34" class="node">
<title>1981446796296</title>
<polygon fill="lightgrey" stroke="black" points="295,-1780.5 195,-1780.5 195,-1759.75 295,-1759.75 295,-1780.5"/>
<text xml:space="preserve" text-anchor="middle" x="245" y="-1767" font-family="monospace" font-size="10.00">AccumulateGrad</text>
</g>
<!-- 1981446796296&#45;&gt;1981446795784 -->
<g id="edge32" class="edge">
<title>1981446796296&#45;&gt;1981446795784</title>
<path fill="none" stroke="black" d="M231.77,-1759.34C221.04,-1751.4 205.68,-1740.03 193.08,-1730.71"/>
<polygon fill="black" stroke="black" points="195.45,-1728.11 185.33,-1724.98 191.29,-1733.74 195.45,-1728.11"/>
</g>
<!-- 1980408394280 -->
<g id="node35" class="node">
<title>1980408394280</title>
<polygon fill="lightblue" stroke="black" points="344,-1850 178,-1850 178,-1816.5 344,-1816.5 344,-1850"/>
<text xml:space="preserve" text-anchor="middle" x="261" y="-1836.5" font-family="monospace" font-size="10.00">netAS1.Block.conv2.weight</text>
<text xml:space="preserve" text-anchor="middle" x="261" y="-1823.75" font-family="monospace" font-size="10.00"> (32, 32, 3, 3)</text>
</g>
<!-- 1980408394280&#45;&gt;1981446796296 -->
<g id="edge33" class="edge">
<title>1980408394280&#45;&gt;1981446796296</title>
<path fill="none" stroke="black" d="M256.8,-1816.19C254.85,-1808.77 252.52,-1799.86 250.45,-1791.93"/>
<polygon fill="black" stroke="black" points="253.88,-1791.22 247.96,-1782.43 247.11,-1792.99 253.88,-1791.22"/>
</g>
<!-- 1981446795400 -->
<g id="node36" class="node">
<title>1981446795400</title>
<polygon fill="lightgrey" stroke="black" points="383,-1597.5 283,-1597.5 283,-1576.75 383,-1576.75 383,-1597.5"/>
<text xml:space="preserve" text-anchor="middle" x="333" y="-1584" font-family="monospace" font-size="10.00">AccumulateGrad</text>
</g>
<!-- 1981446795400&#45;&gt;1981446718792 -->
<g id="edge34" class="edge">
<title>1981446795400&#45;&gt;1981446718792</title>
<path fill="none" stroke="black" d="M319.77,-1576.34C309.04,-1568.4 293.68,-1557.03 281.08,-1547.71"/>
<polygon fill="black" stroke="black" points="283.45,-1545.11 273.33,-1541.98 279.29,-1550.74 283.45,-1545.11"/>
</g>
<!-- 1980408394760 -->
<g id="node37" class="node">
<title>1980408394760</title>
<polygon fill="lightblue" stroke="black" points="432,-1667 266,-1667 266,-1633.5 432,-1633.5 432,-1667"/>
<text xml:space="preserve" text-anchor="middle" x="349" y="-1653.5" font-family="monospace" font-size="10.00">netAS1.Block.conv3.weight</text>
<text xml:space="preserve" text-anchor="middle" x="349" y="-1640.75" font-family="monospace" font-size="10.00"> (64, 32, 3, 3)</text>
</g>
<!-- 1980408394760&#45;&gt;1981446795400 -->
<g id="edge35" class="edge">
<title>1980408394760&#45;&gt;1981446795400</title>
<path fill="none" stroke="black" d="M344.8,-1633.19C342.85,-1625.77 340.52,-1616.86 338.45,-1608.93"/>
<polygon fill="black" stroke="black" points="341.88,-1608.22 335.96,-1599.43 335.11,-1609.99 341.88,-1608.22"/>
</g>
<!-- 1981446718600 -->
<g id="node38" class="node">
<title>1981446718600</title>
<polygon fill="lightgrey" stroke="black" points="471,-1414.5 371,-1414.5 371,-1393.75 471,-1393.75 471,-1414.5"/>
<text xml:space="preserve" text-anchor="middle" x="421" y="-1401" font-family="monospace" font-size="10.00">AccumulateGrad</text>
</g>
<!-- 1981446718600&#45;&gt;1981446717512 -->
<g id="edge36" class="edge">
<title>1981446718600&#45;&gt;1981446717512</title>
<path fill="none" stroke="black" d="M407.77,-1393.34C397.04,-1385.4 381.68,-1374.03 369.08,-1364.71"/>
<polygon fill="black" stroke="black" points="371.45,-1362.11 361.33,-1358.98 367.29,-1367.74 371.45,-1362.11"/>
</g>
<!-- 1980408395240 -->
<g id="node39" class="node">
<title>1980408395240</title>
<polygon fill="lightblue" stroke="black" points="520,-1484 354,-1484 354,-1450.5 520,-1450.5 520,-1484"/>
<text xml:space="preserve" text-anchor="middle" x="437" y="-1470.5" font-family="monospace" font-size="10.00">netAS1.Block.conv4.weight</text>
<text xml:space="preserve" text-anchor="middle" x="437" y="-1457.75" font-family="monospace" font-size="10.00"> (64, 64, 3, 3)</text>
</g>
<!-- 1980408395240&#45;&gt;1981446718600 -->
<g id="edge37" class="edge">
<title>1980408395240&#45;&gt;1981446718600</title>
<path fill="none" stroke="black" d="M432.8,-1450.19C430.85,-1442.77 428.52,-1433.86 426.45,-1425.93"/>
<polygon fill="black" stroke="black" points="429.88,-1425.22 423.96,-1416.43 423.11,-1426.99 429.88,-1425.22"/>
</g>
<!-- 1981446721288 -->
<g id="node40" class="node">
<title>1981446721288</title>
<polygon fill="lightgrey" stroke="black" points="559,-1231.5 459,-1231.5 459,-1210.75 559,-1210.75 559,-1231.5"/>
<text xml:space="preserve" text-anchor="middle" x="509" y="-1218" font-family="monospace" font-size="10.00">AccumulateGrad</text>
</g>
<!-- 1981446721288&#45;&gt;1981446718280 -->
<g id="edge38" class="edge">
<title>1981446721288&#45;&gt;1981446718280</title>
<path fill="none" stroke="black" d="M495.77,-1210.34C485.04,-1202.4 469.68,-1191.03 457.08,-1181.71"/>
<polygon fill="black" stroke="black" points="459.45,-1179.11 449.33,-1175.98 455.29,-1184.74 459.45,-1179.11"/>
</g>
<!-- 1980408397320 -->
<g id="node41" class="node">
<title>1980408397320</title>
<polygon fill="lightblue" stroke="black" points="608,-1301 442,-1301 442,-1267.5 608,-1267.5 608,-1301"/>
<text xml:space="preserve" text-anchor="middle" x="525" y="-1287.5" font-family="monospace" font-size="10.00">netAS1.Block.conv5.weight</text>
<text xml:space="preserve" text-anchor="middle" x="525" y="-1274.75" font-family="monospace" font-size="10.00"> (128, 64, 3, 3)</text>
</g>
<!-- 1980408397320&#45;&gt;1981446721288 -->
<g id="edge39" class="edge">
<title>1980408397320&#45;&gt;1981446721288</title>
<path fill="none" stroke="black" d="M520.8,-1267.19C518.85,-1259.77 516.52,-1250.86 514.45,-1242.93"/>
<polygon fill="black" stroke="black" points="517.88,-1242.22 511.96,-1233.43 511.11,-1243.99 517.88,-1242.22"/>
</g>
<!-- 1981446720072 -->
<g id="node42" class="node">
<title>1981446720072</title>
<polygon fill="lightgrey" stroke="black" points="647,-1048.5 547,-1048.5 547,-1027.75 647,-1027.75 647,-1048.5"/>
<text xml:space="preserve" text-anchor="middle" x="597" y="-1035" font-family="monospace" font-size="10.00">AccumulateGrad</text>
</g>
<!-- 1981446720072&#45;&gt;1981446622024 -->
<g id="edge40" class="edge">
<title>1981446720072&#45;&gt;1981446622024</title>
<path fill="none" stroke="black" d="M583.77,-1027.34C573.04,-1019.4 557.68,-1008.03 545.08,-998.71"/>
<polygon fill="black" stroke="black" points="547.45,-996.11 537.33,-992.98 543.29,-1001.74 547.45,-996.11"/>
</g>
<!-- 1980408732232 -->
<g id="node43" class="node">
<title>1980408732232</title>
<polygon fill="lightblue" stroke="black" points="696,-1118 530,-1118 530,-1084.5 696,-1084.5 696,-1118"/>
<text xml:space="preserve" text-anchor="middle" x="613" y="-1104.5" font-family="monospace" font-size="10.00">netAS1.Block.conv6.weight</text>
<text xml:space="preserve" text-anchor="middle" x="613" y="-1091.75" font-family="monospace" font-size="10.00"> (128, 128, 3, 3)</text>
</g>
<!-- 1980408732232&#45;&gt;1981446720072 -->
<g id="edge41" class="edge">
<title>1980408732232&#45;&gt;1981446720072</title>
<path fill="none" stroke="black" d="M608.8,-1084.19C606.85,-1076.77 604.52,-1067.86 602.45,-1059.93"/>
<polygon fill="black" stroke="black" points="605.88,-1059.22 599.96,-1050.43 599.11,-1060.99 605.88,-1059.22"/>
</g>
<!-- 1981446620424 -->
<g id="node44" class="node">
<title>1981446620424</title>
<polygon fill="lightgrey" stroke="black" points="735,-865.5 635,-865.5 635,-844.75 735,-844.75 735,-865.5"/>
<text xml:space="preserve" text-anchor="middle" x="685" y="-852" font-family="monospace" font-size="10.00">AccumulateGrad</text>
</g>
<!-- 1981446620424&#45;&gt;1981446623496 -->
<g id="edge42" class="edge">
<title>1981446620424&#45;&gt;1981446623496</title>
<path fill="none" stroke="black" d="M671.77,-844.34C661.04,-836.4 645.68,-825.03 633.08,-815.71"/>
<polygon fill="black" stroke="black" points="635.45,-813.11 625.33,-809.98 631.29,-818.74 635.45,-813.11"/>
</g>
<!-- 1980408788616 -->
<g id="node45" class="node">
<title>1980408788616</title>
<polygon fill="lightblue" stroke="black" points="784,-935 618,-935 618,-901.5 784,-901.5 784,-935"/>
<text xml:space="preserve" text-anchor="middle" x="701" y="-921.5" font-family="monospace" font-size="10.00">netAS1.Block.conv7.weight</text>
<text xml:space="preserve" text-anchor="middle" x="701" y="-908.75" font-family="monospace" font-size="10.00"> (128, 128, 3, 3)</text>
</g>
<!-- 1980408788616&#45;&gt;1981446620424 -->
<g id="edge43" class="edge">
<title>1980408788616&#45;&gt;1981446620424</title>
<path fill="none" stroke="black" d="M696.8,-901.19C694.85,-893.77 692.52,-884.86 690.45,-876.93"/>
<polygon fill="black" stroke="black" points="693.88,-876.22 687.96,-867.43 687.11,-877.99 693.88,-876.22"/>
</g>
<!-- 1981446624520 -->
<g id="node46" class="node">
<title>1981446624520</title>
<polygon fill="lightgrey" stroke="black" points="823,-682.5 723,-682.5 723,-661.75 823,-661.75 823,-682.5"/>
<text xml:space="preserve" text-anchor="middle" x="773" y="-669" font-family="monospace" font-size="10.00">AccumulateGrad</text>
</g>
<!-- 1981446624520&#45;&gt;1981446642568 -->
<g id="edge44" class="edge">
<title>1981446624520&#45;&gt;1981446642568</title>
<path fill="none" stroke="black" d="M759.77,-661.34C749.04,-653.4 733.68,-642.03 721.08,-632.71"/>
<polygon fill="black" stroke="black" points="723.45,-630.11 713.33,-626.98 719.29,-635.74 723.45,-630.11"/>
</g>
<!-- 1980408849096 -->
<g id="node47" class="node">
<title>1980408849096</title>
<polygon fill="lightblue" stroke="black" points="872,-752 706,-752 706,-718.5 872,-718.5 872,-752"/>
<text xml:space="preserve" text-anchor="middle" x="789" y="-738.5" font-family="monospace" font-size="10.00">netAS1.Block.conv8.weight</text>
<text xml:space="preserve" text-anchor="middle" x="789" y="-725.75" font-family="monospace" font-size="10.00"> (128, 128, 3, 3)</text>
</g>
<!-- 1980408849096&#45;&gt;1981446624520 -->
<g id="edge45" class="edge">
<title>1980408849096&#45;&gt;1981446624520</title>
<path fill="none" stroke="black" d="M784.8,-718.19C782.85,-710.77 780.52,-701.86 778.45,-693.93"/>
<polygon fill="black" stroke="black" points="781.88,-693.22 775.96,-684.43 775.11,-694.99 781.88,-693.22"/>
</g>
<!-- 1981446642376 -->
<g id="node48" class="node">
<title>1981446642376</title>
<polygon fill="lightgrey" stroke="black" points="862,-430 792,-430 792,-409.25 862,-409.25 862,-430"/>
<text xml:space="preserve" text-anchor="middle" x="827" y="-416.5" font-family="monospace" font-size="10.00">TBackward</text>
</g>
<!-- 1981446642376&#45;&gt;1981446641992 -->
<g id="edge46" class="edge">
<title>1981446642376&#45;&gt;1981446641992</title>
<path fill="none" stroke="black" d="M804.12,-408.84C784.09,-400.27 754.76,-387.73 732.17,-378.06"/>
<polygon fill="black" stroke="black" points="733.65,-374.89 723.08,-374.17 730.9,-381.32 733.65,-374.89"/>
</g>
<!-- 1981446643592 -->
<g id="node49" class="node">
<title>1981446643592</title>
<polygon fill="lightgrey" stroke="black" points="909,-493.12 809,-493.12 809,-472.38 909,-472.38 909,-493.12"/>
<text xml:space="preserve" text-anchor="middle" x="859" y="-479.62" font-family="monospace" font-size="10.00">AccumulateGrad</text>
</g>
<!-- 1981446643592&#45;&gt;1981446642376 -->
<g id="edge47" class="edge">
<title>1981446643592&#45;&gt;1981446642376</title>
<path fill="none" stroke="black" d="M853.86,-471.93C849.4,-463.41 842.81,-450.83 837.28,-440.26"/>
<polygon fill="black" stroke="black" points="840.46,-438.8 832.73,-431.56 834.26,-442.04 840.46,-438.8"/>
</g>
<!-- 1980408851976 -->
<g id="node50" class="node">
<title>1980408851976</title>
<polygon fill="lightblue" stroke="black" points="924,-569 794,-569 794,-535.5 924,-535.5 924,-569"/>
<text xml:space="preserve" text-anchor="middle" x="859" y="-555.5" font-family="monospace" font-size="10.00">netAS1.fc1.0.weight</text>
<text xml:space="preserve" text-anchor="middle" x="859" y="-542.75" font-family="monospace" font-size="10.00"> (128, 8192)</text>
</g>
<!-- 1980408851976&#45;&gt;1981446643592 -->
<g id="edge48" class="edge">
<title>1980408851976&#45;&gt;1981446643592</title>
<path fill="none" stroke="black" d="M859,-535.25C859,-526.15 859,-514.64 859,-504.82"/>
<polygon fill="black" stroke="black" points="862.5,-505.09 859,-495.09 855.5,-505.09 862.5,-505.09"/>
</g>
<!-- 1981446753416 -->
<g id="node51" class="node">
<title>1981446753416</title>
<polygon fill="lightgrey" stroke="black" points="793,-146.25 693,-146.25 693,-125.5 793,-125.5 793,-146.25"/>
<text xml:space="preserve" text-anchor="middle" x="743" y="-132.75" font-family="monospace" font-size="10.00">ExpandBackward</text>
</g>
<!-- 1981446753416&#45;&gt;1981446752776 -->
<g id="edge49" class="edge">
<title>1981446753416&#45;&gt;1981446752776</title>
<path fill="none" stroke="black" d="M735.49,-125.09C729.88,-117.77 722.03,-107.54 715.24,-98.69"/>
<polygon fill="black" stroke="black" points="718.23,-96.83 709.36,-91.03 712.67,-101.09 718.23,-96.83"/>
</g>
<!-- 1981446639688 -->
<g id="node52" class="node">
<title>1981446639688</title>
<polygon fill="lightgrey" stroke="black" points="802,-203 690,-203 690,-182.25 802,-182.25 802,-203"/>
<text xml:space="preserve" text-anchor="middle" x="746" y="-189.5" font-family="monospace" font-size="10.00">ClampMinBackward</text>
</g>
<!-- 1981446639688&#45;&gt;1981446753416 -->
<g id="edge50" class="edge">
<title>1981446639688&#45;&gt;1981446753416</title>
<path fill="none" stroke="black" d="M745.46,-181.84C745.1,-175.22 744.61,-166.22 744.16,-158.02"/>
<polygon fill="black" stroke="black" points="747.66,-157.88 743.61,-148.09 740.67,-158.27 747.66,-157.88"/>
</g>
<!-- 1981446640584&#45;&gt;1981446639688 -->
<g id="edge51" class="edge">
<title>1981446640584&#45;&gt;1981446639688</title>
<path fill="none" stroke="black" d="M741.89,-238.59C742.5,-231.97 743.32,-222.97 744.07,-214.77"/>
<polygon fill="black" stroke="black" points="747.55,-215.11 744.98,-204.84 740.58,-214.48 747.55,-215.11"/>
</g>
</g>
</svg>
