<?xml version="1.0" encoding="UTF-8" standalone="no"?>
<!DOCTYPE svg PUBLIC "-//W3C//DTD SVG 1.1//EN"
 "http://www.w3.org/Graphics/SVG/1.1/DTD/svg11.dtd">
<!-- Generated by graphviz version 13.1.0 (20250701.0955)
 -->
<!-- Pages: 1 -->
<svg width="469pt" height="1166pt"
 viewBox="0.00 0.00 469.00 1166.00" xmlns="http://www.w3.org/2000/svg" xmlns:xlink="http://www.w3.org/1999/xlink">
<g id="graph0" class="graph" transform="scale(0.555834 0.555834) rotate(0) translate(4 2093.75)">
<polygon fill="white" stroke="none" points="-4,4 -4,-2093.75 840,-2093.75 840,4 -4,4"/>
<!-- 1221902482152 -->
<g id="node1" class="node">
<title>1221902482152</title>
<polygon fill="#caff70" stroke="black" points="655,-32.75 601,-32.75 601,0 655,0 655,-32.75"/>
<text xml:space="preserve" text-anchor="middle" x="628" y="-7.25" font-family="monospace" font-size="10.00"> ()</text>
</g>
<!-- 1221880543304 -->
<g id="node2" class="node">
<title>1221880543304</title>
<polygon fill="lightgrey" stroke="black" points="675,-89.5 581,-89.5 581,-68.75 675,-68.75 675,-89.5"/>
<text xml:space="preserve" text-anchor="middle" x="628" y="-76" font-family="monospace" font-size="10.00">MeanBackward0</text>
</g>
<!-- 1221880543304&#45;&gt;1221902482152 -->
<g id="edge54" class="edge">
<title>1221880543304&#45;&gt;1221902482152</title>
<path fill="none" stroke="black" d="M628,-68.36C628,-61.89 628,-53.05 628,-44.55"/>
<polygon fill="black" stroke="black" points="631.5,-44.55 628,-34.55 624.5,-44.55 631.5,-44.55"/>
</g>
<!-- 1221911958088 -->
<g id="node3" class="node">
<title>1221911958088</title>
<polygon fill="lightgrey" stroke="black" points="672,-146.25 584,-146.25 584,-125.5 672,-125.5 672,-146.25"/>
<text xml:space="preserve" text-anchor="middle" x="628" y="-132.75" font-family="monospace" font-size="10.00">DivBackward0</text>
</g>
<!-- 1221911958088&#45;&gt;1221880543304 -->
<g id="edge1" class="edge">
<title>1221911958088&#45;&gt;1221880543304</title>
<path fill="none" stroke="black" d="M628,-125.09C628,-118.47 628,-109.47 628,-101.27"/>
<polygon fill="black" stroke="black" points="631.5,-101.34 628,-91.34 624.5,-101.34 631.5,-101.34"/>
</g>
<!-- 1221911958024 -->
<g id="node4" class="node">
<title>1221911958024</title>
<polygon fill="lightgrey" stroke="black" points="670,-373.25 582,-373.25 582,-352.5 670,-352.5 670,-373.25"/>
<text xml:space="preserve" text-anchor="middle" x="626" y="-359.75" font-family="monospace" font-size="10.00">ViewBackward</text>
</g>
<!-- 1221911958024&#45;&gt;1221911958088 -->
<g id="edge2" class="edge">
<title>1221911958024&#45;&gt;1221911958088</title>
<path fill="none" stroke="black" d="M622.34,-352.3C619.05,-343.23 614.36,-329.14 612,-316.5 601.03,-257.85 598.82,-240.66 611,-182.25 612.76,-173.83 615.82,-164.89 618.87,-157.2"/>
<polygon fill="black" stroke="black" points="622.05,-158.67 622.72,-148.1 615.6,-155.94 622.05,-158.67"/>
</g>
<!-- 1221868761672 -->
<g id="node54" class="node">
<title>1221868761672</title>
<polygon fill="lightgrey" stroke="black" points="715,-316.5 621,-316.5 621,-295.75 715,-295.75 715,-316.5"/>
<text xml:space="preserve" text-anchor="middle" x="668" y="-303" font-family="monospace" font-size="10.00">NormBackward1</text>
</g>
<!-- 1221911958024&#45;&gt;1221868761672 -->
<g id="edge53" class="edge">
<title>1221911958024&#45;&gt;1221868761672</title>
<path fill="none" stroke="black" d="M633.51,-352.09C639.12,-344.77 646.97,-334.54 653.76,-325.69"/>
<polygon fill="black" stroke="black" points="656.33,-328.09 659.64,-318.03 650.77,-323.83 656.33,-328.09"/>
</g>
<!-- 1221911958472 -->
<g id="node5" class="node">
<title>1221911958472</title>
<polygon fill="lightgrey" stroke="black" points="673,-430 579,-430 579,-409.25 673,-409.25 673,-430"/>
<text xml:space="preserve" text-anchor="middle" x="626" y="-416.5" font-family="monospace" font-size="10.00">AddmmBackward</text>
</g>
<!-- 1221911958472&#45;&gt;1221911958024 -->
<g id="edge3" class="edge">
<title>1221911958472&#45;&gt;1221911958024</title>
<path fill="none" stroke="black" d="M626,-408.84C626,-402.22 626,-393.22 626,-385.02"/>
<polygon fill="black" stroke="black" points="629.5,-385.09 626,-375.09 622.5,-385.09 629.5,-385.09"/>
</g>
<!-- 1221647151688 -->
<g id="node6" class="node">
<title>1221647151688</title>
<polygon fill="lightgrey" stroke="black" points="546,-486.75 446,-486.75 446,-466 546,-466 546,-486.75"/>
<text xml:space="preserve" text-anchor="middle" x="496" y="-473.25" font-family="monospace" font-size="10.00">AccumulateGrad</text>
</g>
<!-- 1221647151688&#45;&gt;1221911958472 -->
<g id="edge4" class="edge">
<title>1221647151688&#45;&gt;1221911958472</title>
<path fill="none" stroke="black" d="M519.24,-465.59C539.67,-456.98 569.64,-444.36 592.63,-434.68"/>
<polygon fill="black" stroke="black" points="593.71,-438.02 601.56,-430.92 590.99,-431.57 593.71,-438.02"/>
</g>
<!-- 1221902601816 -->
<g id="node7" class="node">
<title>1221902601816</title>
<polygon fill="lightblue" stroke="black" points="516,-556.25 440,-556.25 440,-522.75 516,-522.75 516,-556.25"/>
<text xml:space="preserve" text-anchor="middle" x="478" y="-542.75" font-family="monospace" font-size="10.00">fc1.0.bias</text>
<text xml:space="preserve" text-anchor="middle" x="478" y="-530" font-family="monospace" font-size="10.00"> (128)</text>
</g>
<!-- 1221902601816&#45;&gt;1221647151688 -->
<g id="edge5" class="edge">
<title>1221902601816&#45;&gt;1221647151688</title>
<path fill="none" stroke="black" d="M482.73,-522.44C484.92,-515.02 487.54,-506.11 489.87,-498.18"/>
<polygon fill="black" stroke="black" points="493.21,-499.25 492.67,-488.67 486.49,-497.27 493.21,-499.25"/>
</g>
<!-- 1221647152136 -->
<g id="node8" class="node">
<title>1221647152136</title>
<polygon fill="lightgrey" stroke="black" points="670,-486.75 582,-486.75 582,-466 670,-466 670,-486.75"/>
<text xml:space="preserve" text-anchor="middle" x="626" y="-473.25" font-family="monospace" font-size="10.00">ViewBackward</text>
</g>
<!-- 1221647152136&#45;&gt;1221911958472 -->
<g id="edge6" class="edge">
<title>1221647152136&#45;&gt;1221911958472</title>
<path fill="none" stroke="black" d="M626,-465.59C626,-458.97 626,-449.97 626,-441.77"/>
<polygon fill="black" stroke="black" points="629.5,-441.84 626,-431.84 622.5,-441.84 629.5,-441.84"/>
</g>
<!-- 1221911959112 -->
<g id="node9" class="node">
<title>1221911959112</title>
<polygon fill="lightgrey" stroke="black" points="718,-549.88 534,-549.88 534,-529.12 718,-529.12 718,-549.88"/>
<text xml:space="preserve" text-anchor="middle" x="626" y="-536.38" font-family="monospace" font-size="10.00">MaxPool2DWithIndicesBackward</text>
</g>
<!-- 1221911959112&#45;&gt;1221647152136 -->
<g id="edge7" class="edge">
<title>1221911959112&#45;&gt;1221647152136</title>
<path fill="none" stroke="black" d="M626,-528.68C626,-520.52 626,-508.63 626,-498.35"/>
<polygon fill="black" stroke="black" points="629.5,-498.48 626,-488.48 622.5,-498.48 629.5,-498.48"/>
</g>
<!-- 1221647152072 -->
<g id="node10" class="node">
<title>1221647152072</title>
<polygon fill="lightgrey" stroke="black" points="703,-619.38 549,-619.38 549,-598.62 703,-598.62 703,-619.38"/>
<text xml:space="preserve" text-anchor="middle" x="626" y="-605.88" font-family="monospace" font-size="10.00">NativeBatchNormBackward</text>
</g>
<!-- 1221647152072&#45;&gt;1221911959112 -->
<g id="edge8" class="edge">
<title>1221647152072&#45;&gt;1221911959112</title>
<path fill="none" stroke="black" d="M626,-598.33C626,-588.71 626,-573.63 626,-561.29"/>
<polygon fill="black" stroke="black" points="629.5,-561.67 626,-551.67 622.5,-561.67 629.5,-561.67"/>
</g>
<!-- 1221883668808 -->
<g id="node11" class="node">
<title>1221883668808</title>
<polygon fill="lightgrey" stroke="black" points="706,-682.5 546,-682.5 546,-661.75 706,-661.75 706,-682.5"/>
<text xml:space="preserve" text-anchor="middle" x="626" y="-669" font-family="monospace" font-size="10.00">CudnnConvolutionBackward</text>
</g>
<!-- 1221883668808&#45;&gt;1221647152072 -->
<g id="edge9" class="edge">
<title>1221883668808&#45;&gt;1221647152072</title>
<path fill="none" stroke="black" d="M626,-661.3C626,-653.15 626,-641.26 626,-630.98"/>
<polygon fill="black" stroke="black" points="629.5,-631.11 626,-621.11 622.5,-631.11 629.5,-631.11"/>
</g>
<!-- 1221870461192 -->
<g id="node12" class="node">
<title>1221870461192</title>
<polygon fill="lightgrey" stroke="black" points="616,-739.25 522,-739.25 522,-718.5 616,-718.5 616,-739.25"/>
<text xml:space="preserve" text-anchor="middle" x="569" y="-725.75" font-family="monospace" font-size="10.00">ReluBackward0</text>
</g>
<!-- 1221870461192&#45;&gt;1221883668808 -->
<g id="edge10" class="edge">
<title>1221870461192&#45;&gt;1221883668808</title>
<path fill="none" stroke="black" d="M579.19,-718.09C587.13,-710.46 598.37,-699.67 607.84,-690.57"/>
<polygon fill="black" stroke="black" points="610.02,-693.33 614.81,-683.88 605.17,-688.28 610.02,-693.33"/>
</g>
<!-- 1221907938056 -->
<g id="node13" class="node">
<title>1221907938056</title>
<polygon fill="lightgrey" stroke="black" points="625,-802.38 471,-802.38 471,-781.62 625,-781.62 625,-802.38"/>
<text xml:space="preserve" text-anchor="middle" x="548" y="-788.88" font-family="monospace" font-size="10.00">NativeBatchNormBackward</text>
</g>
<!-- 1221907938056&#45;&gt;1221870461192 -->
<g id="edge11" class="edge">
<title>1221907938056&#45;&gt;1221870461192</title>
<path fill="none" stroke="black" d="M551.37,-781.18C554.24,-772.84 558.44,-760.61 562.03,-750.18"/>
<polygon fill="black" stroke="black" points="565.27,-751.5 565.21,-740.9 558.65,-749.22 565.27,-751.5"/>
</g>
<!-- 1221907936392 -->
<g id="node14" class="node">
<title>1221907936392</title>
<polygon fill="lightgrey" stroke="black" points="628,-865.5 468,-865.5 468,-844.75 628,-844.75 628,-865.5"/>
<text xml:space="preserve" text-anchor="middle" x="548" y="-852" font-family="monospace" font-size="10.00">CudnnConvolutionBackward</text>
</g>
<!-- 1221907936392&#45;&gt;1221907938056 -->
<g id="edge12" class="edge">
<title>1221907936392&#45;&gt;1221907938056</title>
<path fill="none" stroke="black" d="M548,-844.3C548,-836.15 548,-824.26 548,-813.98"/>
<polygon fill="black" stroke="black" points="551.5,-814.11 548,-804.11 544.5,-814.11 551.5,-814.11"/>
</g>
<!-- 1221907937864 -->
<g id="node15" class="node">
<title>1221907937864</title>
<polygon fill="lightgrey" stroke="black" points="538,-922.25 444,-922.25 444,-901.5 538,-901.5 538,-922.25"/>
<text xml:space="preserve" text-anchor="middle" x="491" y="-908.75" font-family="monospace" font-size="10.00">ReluBackward0</text>
</g>
<!-- 1221907937864&#45;&gt;1221907936392 -->
<g id="edge13" class="edge">
<title>1221907937864&#45;&gt;1221907936392</title>
<path fill="none" stroke="black" d="M501.19,-901.09C509.13,-893.46 520.37,-882.67 529.84,-873.57"/>
<polygon fill="black" stroke="black" points="532.02,-876.33 536.81,-866.88 527.17,-871.28 532.02,-876.33"/>
</g>
<!-- 1221907937672 -->
<g id="node16" class="node">
<title>1221907937672</title>
<polygon fill="lightgrey" stroke="black" points="547,-985.38 393,-985.38 393,-964.62 547,-964.62 547,-985.38"/>
<text xml:space="preserve" text-anchor="middle" x="470" y="-971.88" font-family="monospace" font-size="10.00">NativeBatchNormBackward</text>
</g>
<!-- 1221907937672&#45;&gt;1221907937864 -->
<g id="edge14" class="edge">
<title>1221907937672&#45;&gt;1221907937864</title>
<path fill="none" stroke="black" d="M473.37,-964.18C476.24,-955.84 480.44,-943.61 484.03,-933.18"/>
<polygon fill="black" stroke="black" points="487.27,-934.5 487.21,-923.9 480.65,-932.22 487.27,-934.5"/>
</g>
<!-- 1221907935688 -->
<g id="node17" class="node">
<title>1221907935688</title>
<polygon fill="lightgrey" stroke="black" points="550,-1048.5 390,-1048.5 390,-1027.75 550,-1027.75 550,-1048.5"/>
<text xml:space="preserve" text-anchor="middle" x="470" y="-1035" font-family="monospace" font-size="10.00">CudnnConvolutionBackward</text>
</g>
<!-- 1221907935688&#45;&gt;1221907937672 -->
<g id="edge15" class="edge">
<title>1221907935688&#45;&gt;1221907937672</title>
<path fill="none" stroke="black" d="M470,-1027.3C470,-1019.15 470,-1007.26 470,-996.98"/>
<polygon fill="black" stroke="black" points="473.5,-997.11 470,-987.11 466.5,-997.11 473.5,-997.11"/>
</g>
<!-- 1221907936008 -->
<g id="node18" class="node">
<title>1221907936008</title>
<polygon fill="lightgrey" stroke="black" points="460,-1105.25 366,-1105.25 366,-1084.5 460,-1084.5 460,-1105.25"/>
<text xml:space="preserve" text-anchor="middle" x="413" y="-1091.75" font-family="monospace" font-size="10.00">ReluBackward0</text>
</g>
<!-- 1221907936008&#45;&gt;1221907935688 -->
<g id="edge16" class="edge">
<title>1221907936008&#45;&gt;1221907935688</title>
<path fill="none" stroke="black" d="M423.19,-1084.09C431.13,-1076.46 442.37,-1065.67 451.84,-1056.57"/>
<polygon fill="black" stroke="black" points="454.02,-1059.33 458.81,-1049.88 449.17,-1054.28 454.02,-1059.33"/>
</g>
<!-- 1221907938696 -->
<g id="node19" class="node">
<title>1221907938696</title>
<polygon fill="lightgrey" stroke="black" points="469,-1168.38 315,-1168.38 315,-1147.62 469,-1147.62 469,-1168.38"/>
<text xml:space="preserve" text-anchor="middle" x="392" y="-1154.88" font-family="monospace" font-size="10.00">NativeBatchNormBackward</text>
</g>
<!-- 1221907938696&#45;&gt;1221907936008 -->
<g id="edge17" class="edge">
<title>1221907938696&#45;&gt;1221907936008</title>
<path fill="none" stroke="black" d="M395.37,-1147.18C398.24,-1138.84 402.44,-1126.61 406.03,-1116.18"/>
<polygon fill="black" stroke="black" points="409.27,-1117.5 409.21,-1106.9 402.65,-1115.22 409.27,-1117.5"/>
</g>
<!-- 1221907939016 -->
<g id="node20" class="node">
<title>1221907939016</title>
<polygon fill="lightgrey" stroke="black" points="472,-1231.5 312,-1231.5 312,-1210.75 472,-1210.75 472,-1231.5"/>
<text xml:space="preserve" text-anchor="middle" x="392" y="-1218" font-family="monospace" font-size="10.00">CudnnConvolutionBackward</text>
</g>
<!-- 1221907939016&#45;&gt;1221907938696 -->
<g id="edge18" class="edge">
<title>1221907939016&#45;&gt;1221907938696</title>
<path fill="none" stroke="black" d="M392,-1210.3C392,-1202.15 392,-1190.26 392,-1179.98"/>
<polygon fill="black" stroke="black" points="395.5,-1180.11 392,-1170.11 388.5,-1180.11 395.5,-1180.11"/>
</g>
<!-- 1221907937288 -->
<g id="node21" class="node">
<title>1221907937288</title>
<polygon fill="lightgrey" stroke="black" points="382,-1288.25 288,-1288.25 288,-1267.5 382,-1267.5 382,-1288.25"/>
<text xml:space="preserve" text-anchor="middle" x="335" y="-1274.75" font-family="monospace" font-size="10.00">ReluBackward0</text>
</g>
<!-- 1221907937288&#45;&gt;1221907939016 -->
<g id="edge19" class="edge">
<title>1221907937288&#45;&gt;1221907939016</title>
<path fill="none" stroke="black" d="M345.19,-1267.09C353.13,-1259.46 364.37,-1248.67 373.84,-1239.57"/>
<polygon fill="black" stroke="black" points="376.02,-1242.33 380.81,-1232.88 371.17,-1237.28 376.02,-1242.33"/>
</g>
<!-- 1221907937608 -->
<g id="node22" class="node">
<title>1221907937608</title>
<polygon fill="lightgrey" stroke="black" points="391,-1351.38 237,-1351.38 237,-1330.62 391,-1330.62 391,-1351.38"/>
<text xml:space="preserve" text-anchor="middle" x="314" y="-1337.88" font-family="monospace" font-size="10.00">NativeBatchNormBackward</text>
</g>
<!-- 1221907937608&#45;&gt;1221907937288 -->
<g id="edge20" class="edge">
<title>1221907937608&#45;&gt;1221907937288</title>
<path fill="none" stroke="black" d="M317.37,-1330.18C320.24,-1321.84 324.44,-1309.61 328.03,-1299.18"/>
<polygon fill="black" stroke="black" points="331.27,-1300.5 331.21,-1289.9 324.65,-1298.22 331.27,-1300.5"/>
</g>
<!-- 1221907936264 -->
<g id="node23" class="node">
<title>1221907936264</title>
<polygon fill="lightgrey" stroke="black" points="394,-1414.5 234,-1414.5 234,-1393.75 394,-1393.75 394,-1414.5"/>
<text xml:space="preserve" text-anchor="middle" x="314" y="-1401" font-family="monospace" font-size="10.00">CudnnConvolutionBackward</text>
</g>
<!-- 1221907936264&#45;&gt;1221907937608 -->
<g id="edge21" class="edge">
<title>1221907936264&#45;&gt;1221907937608</title>
<path fill="none" stroke="black" d="M314,-1393.3C314,-1385.15 314,-1373.26 314,-1362.98"/>
<polygon fill="black" stroke="black" points="317.5,-1363.11 314,-1353.11 310.5,-1363.11 317.5,-1363.11"/>
</g>
<!-- 1221907938632 -->
<g id="node24" class="node">
<title>1221907938632</title>
<polygon fill="lightgrey" stroke="black" points="304,-1471.25 210,-1471.25 210,-1450.5 304,-1450.5 304,-1471.25"/>
<text xml:space="preserve" text-anchor="middle" x="257" y="-1457.75" font-family="monospace" font-size="10.00">ReluBackward0</text>
</g>
<!-- 1221907938632&#45;&gt;1221907936264 -->
<g id="edge22" class="edge">
<title>1221907938632&#45;&gt;1221907936264</title>
<path fill="none" stroke="black" d="M267.19,-1450.09C275.13,-1442.46 286.37,-1431.67 295.84,-1422.57"/>
<polygon fill="black" stroke="black" points="298.02,-1425.33 302.81,-1415.88 293.17,-1420.28 298.02,-1425.33"/>
</g>
<!-- 1221907909832 -->
<g id="node25" class="node">
<title>1221907909832</title>
<polygon fill="lightgrey" stroke="black" points="313,-1534.38 159,-1534.38 159,-1513.62 313,-1513.62 313,-1534.38"/>
<text xml:space="preserve" text-anchor="middle" x="236" y="-1520.88" font-family="monospace" font-size="10.00">NativeBatchNormBackward</text>
</g>
<!-- 1221907909832&#45;&gt;1221907938632 -->
<g id="edge23" class="edge">
<title>1221907909832&#45;&gt;1221907938632</title>
<path fill="none" stroke="black" d="M239.37,-1513.18C242.24,-1504.84 246.44,-1492.61 250.03,-1482.18"/>
<polygon fill="black" stroke="black" points="253.27,-1483.5 253.21,-1472.9 246.65,-1481.22 253.27,-1483.5"/>
</g>
<!-- 1221907907848 -->
<g id="node26" class="node">
<title>1221907907848</title>
<polygon fill="lightgrey" stroke="black" points="316,-1597.5 156,-1597.5 156,-1576.75 316,-1576.75 316,-1597.5"/>
<text xml:space="preserve" text-anchor="middle" x="236" y="-1584" font-family="monospace" font-size="10.00">CudnnConvolutionBackward</text>
</g>
<!-- 1221907907848&#45;&gt;1221907909832 -->
<g id="edge24" class="edge">
<title>1221907907848&#45;&gt;1221907909832</title>
<path fill="none" stroke="black" d="M236,-1576.3C236,-1568.15 236,-1556.26 236,-1545.98"/>
<polygon fill="black" stroke="black" points="239.5,-1546.11 236,-1536.11 232.5,-1546.11 239.5,-1546.11"/>
</g>
<!-- 1221907907912 -->
<g id="node27" class="node">
<title>1221907907912</title>
<polygon fill="lightgrey" stroke="black" points="226,-1654.25 132,-1654.25 132,-1633.5 226,-1633.5 226,-1654.25"/>
<text xml:space="preserve" text-anchor="middle" x="179" y="-1640.75" font-family="monospace" font-size="10.00">ReluBackward0</text>
</g>
<!-- 1221907907912&#45;&gt;1221907907848 -->
<g id="edge25" class="edge">
<title>1221907907912&#45;&gt;1221907907848</title>
<path fill="none" stroke="black" d="M189.19,-1633.09C197.13,-1625.46 208.37,-1614.67 217.84,-1605.57"/>
<polygon fill="black" stroke="black" points="220.02,-1608.33 224.81,-1598.88 215.17,-1603.28 220.02,-1608.33"/>
</g>
<!-- 1221907906824 -->
<g id="node28" class="node">
<title>1221907906824</title>
<polygon fill="lightgrey" stroke="black" points="235,-1717.38 81,-1717.38 81,-1696.62 235,-1696.62 235,-1717.38"/>
<text xml:space="preserve" text-anchor="middle" x="158" y="-1703.88" font-family="monospace" font-size="10.00">NativeBatchNormBackward</text>
</g>
<!-- 1221907906824&#45;&gt;1221907907912 -->
<g id="edge26" class="edge">
<title>1221907906824&#45;&gt;1221907907912</title>
<path fill="none" stroke="black" d="M161.37,-1696.18C164.24,-1687.84 168.44,-1675.61 172.03,-1665.18"/>
<polygon fill="black" stroke="black" points="175.27,-1666.5 175.21,-1655.9 168.65,-1664.22 175.27,-1666.5"/>
</g>
<!-- 1221907906888 -->
<g id="node29" class="node">
<title>1221907906888</title>
<polygon fill="lightgrey" stroke="black" points="238,-1780.5 78,-1780.5 78,-1759.75 238,-1759.75 238,-1780.5"/>
<text xml:space="preserve" text-anchor="middle" x="158" y="-1767" font-family="monospace" font-size="10.00">CudnnConvolutionBackward</text>
</g>
<!-- 1221907906888&#45;&gt;1221907906824 -->
<g id="edge27" class="edge">
<title>1221907906888&#45;&gt;1221907906824</title>
<path fill="none" stroke="black" d="M158,-1759.3C158,-1751.15 158,-1739.26 158,-1728.98"/>
<polygon fill="black" stroke="black" points="161.5,-1729.11 158,-1719.11 154.5,-1729.11 161.5,-1729.11"/>
</g>
<!-- 1221908130440 -->
<g id="node30" class="node">
<title>1221908130440</title>
<polygon fill="lightgrey" stroke="black" points="148,-1837.25 54,-1837.25 54,-1816.5 148,-1816.5 148,-1837.25"/>
<text xml:space="preserve" text-anchor="middle" x="101" y="-1823.75" font-family="monospace" font-size="10.00">ReluBackward0</text>
</g>
<!-- 1221908130440&#45;&gt;1221907906888 -->
<g id="edge28" class="edge">
<title>1221908130440&#45;&gt;1221907906888</title>
<path fill="none" stroke="black" d="M111.19,-1816.09C119.13,-1808.46 130.37,-1797.67 139.84,-1788.57"/>
<polygon fill="black" stroke="black" points="142.02,-1791.33 146.81,-1781.88 137.17,-1786.28 142.02,-1791.33"/>
</g>
<!-- 1221908128648 -->
<g id="node31" class="node">
<title>1221908128648</title>
<polygon fill="lightgrey" stroke="black" points="157,-1900.38 3,-1900.38 3,-1879.62 157,-1879.62 157,-1900.38"/>
<text xml:space="preserve" text-anchor="middle" x="80" y="-1886.88" font-family="monospace" font-size="10.00">NativeBatchNormBackward</text>
</g>
<!-- 1221908128648&#45;&gt;1221908130440 -->
<g id="edge29" class="edge">
<title>1221908128648&#45;&gt;1221908130440</title>
<path fill="none" stroke="black" d="M83.37,-1879.18C86.24,-1870.84 90.44,-1858.61 94.03,-1848.18"/>
<polygon fill="black" stroke="black" points="97.27,-1849.5 97.21,-1838.9 90.65,-1847.22 97.27,-1849.5"/>
</g>
<!-- 1221908127944 -->
<g id="node32" class="node">
<title>1221908127944</title>
<polygon fill="lightgrey" stroke="black" points="160,-1963.5 0,-1963.5 0,-1942.75 160,-1942.75 160,-1963.5"/>
<text xml:space="preserve" text-anchor="middle" x="80" y="-1950" font-family="monospace" font-size="10.00">CudnnConvolutionBackward</text>
</g>
<!-- 1221908127944&#45;&gt;1221908128648 -->
<g id="edge30" class="edge">
<title>1221908127944&#45;&gt;1221908128648</title>
<path fill="none" stroke="black" d="M80,-1942.3C80,-1934.15 80,-1922.26 80,-1911.98"/>
<polygon fill="black" stroke="black" points="83.5,-1912.11 80,-1902.11 76.5,-1912.11 83.5,-1912.11"/>
</g>
<!-- 1221908131016 -->
<g id="node33" class="node">
<title>1221908131016</title>
<polygon fill="lightgrey" stroke="black" points="130,-2020.25 30,-2020.25 30,-1999.5 130,-1999.5 130,-2020.25"/>
<text xml:space="preserve" text-anchor="middle" x="80" y="-2006.75" font-family="monospace" font-size="10.00">AccumulateGrad</text>
</g>
<!-- 1221908131016&#45;&gt;1221908127944 -->
<g id="edge31" class="edge">
<title>1221908131016&#45;&gt;1221908127944</title>
<path fill="none" stroke="black" d="M80,-1999.09C80,-1992.47 80,-1983.47 80,-1975.27"/>
<polygon fill="black" stroke="black" points="83.5,-1975.34 80,-1965.34 76.5,-1975.34 83.5,-1975.34"/>
</g>
<!-- 1221902401608 -->
<g id="node34" class="node">
<title>1221902401608</title>
<polygon fill="lightblue" stroke="black" points="142,-2089.75 18,-2089.75 18,-2056.25 142,-2056.25 142,-2089.75"/>
<text xml:space="preserve" text-anchor="middle" x="80" y="-2076.25" font-family="monospace" font-size="10.00">Block.conv1.weight</text>
<text xml:space="preserve" text-anchor="middle" x="80" y="-2063.5" font-family="monospace" font-size="10.00"> (32, 1, 3, 3)</text>
</g>
<!-- 1221902401608&#45;&gt;1221908131016 -->
<g id="edge32" class="edge">
<title>1221902401608&#45;&gt;1221908131016</title>
<path fill="none" stroke="black" d="M80,-2055.94C80,-2048.6 80,-2039.82 80,-2031.96"/>
<polygon fill="black" stroke="black" points="83.5,-2032.23 80,-2022.23 76.5,-2032.23 83.5,-2032.23"/>
</g>
<!-- 1221908128776 -->
<g id="node35" class="node">
<title>1221908128776</title>
<polygon fill="lightgrey" stroke="black" points="276,-1837.25 176,-1837.25 176,-1816.5 276,-1816.5 276,-1837.25"/>
<text xml:space="preserve" text-anchor="middle" x="226" y="-1823.75" font-family="monospace" font-size="10.00">AccumulateGrad</text>
</g>
<!-- 1221908128776&#45;&gt;1221907906888 -->
<g id="edge33" class="edge">
<title>1221908128776&#45;&gt;1221907906888</title>
<path fill="none" stroke="black" d="M213.84,-1816.09C204.17,-1808.3 190.42,-1797.22 178.98,-1788.01"/>
<polygon fill="black" stroke="black" points="181.21,-1785.32 171.23,-1781.78 176.82,-1790.78 181.21,-1785.32"/>
</g>
<!-- 1221902402168 -->
<g id="node36" class="node">
<title>1221902402168</title>
<polygon fill="lightblue" stroke="black" points="299,-1906.75 175,-1906.75 175,-1873.25 299,-1873.25 299,-1906.75"/>
<text xml:space="preserve" text-anchor="middle" x="237" y="-1893.25" font-family="monospace" font-size="10.00">Block.conv2.weight</text>
<text xml:space="preserve" text-anchor="middle" x="237" y="-1880.5" font-family="monospace" font-size="10.00"> (32, 32, 3, 3)</text>
</g>
<!-- 1221902402168&#45;&gt;1221908128776 -->
<g id="edge34" class="edge">
<title>1221902402168&#45;&gt;1221908128776</title>
<path fill="none" stroke="black" d="M234.11,-1872.94C232.79,-1865.6 231.21,-1856.82 229.79,-1848.96"/>
<polygon fill="black" stroke="black" points="233.26,-1848.43 228.04,-1839.21 226.37,-1849.67 233.26,-1848.43"/>
</g>
<!-- 1221907907080 -->
<g id="node37" class="node">
<title>1221907907080</title>
<polygon fill="lightgrey" stroke="black" points="354,-1654.25 254,-1654.25 254,-1633.5 354,-1633.5 354,-1654.25"/>
<text xml:space="preserve" text-anchor="middle" x="304" y="-1640.75" font-family="monospace" font-size="10.00">AccumulateGrad</text>
</g>
<!-- 1221907907080&#45;&gt;1221907907848 -->
<g id="edge35" class="edge">
<title>1221907907080&#45;&gt;1221907907848</title>
<path fill="none" stroke="black" d="M291.84,-1633.09C282.17,-1625.3 268.42,-1614.22 256.98,-1605.01"/>
<polygon fill="black" stroke="black" points="259.21,-1602.32 249.23,-1598.78 254.82,-1607.78 259.21,-1602.32"/>
</g>
<!-- 1221902402648 -->
<g id="node38" class="node">
<title>1221902402648</title>
<polygon fill="lightblue" stroke="black" points="377,-1723.75 253,-1723.75 253,-1690.25 377,-1690.25 377,-1723.75"/>
<text xml:space="preserve" text-anchor="middle" x="315" y="-1710.25" font-family="monospace" font-size="10.00">Block.conv3.weight</text>
<text xml:space="preserve" text-anchor="middle" x="315" y="-1697.5" font-family="monospace" font-size="10.00"> (64, 32, 3, 3)</text>
</g>
<!-- 1221902402648&#45;&gt;1221907907080 -->
<g id="edge36" class="edge">
<title>1221902402648&#45;&gt;1221907907080</title>
<path fill="none" stroke="black" d="M312.11,-1689.94C310.79,-1682.6 309.21,-1673.82 307.79,-1665.96"/>
<polygon fill="black" stroke="black" points="311.26,-1665.43 306.04,-1656.21 304.37,-1666.67 311.26,-1665.43"/>
</g>
<!-- 1221823662792 -->
<g id="node39" class="node">
<title>1221823662792</title>
<polygon fill="lightgrey" stroke="black" points="432,-1471.25 332,-1471.25 332,-1450.5 432,-1450.5 432,-1471.25"/>
<text xml:space="preserve" text-anchor="middle" x="382" y="-1457.75" font-family="monospace" font-size="10.00">AccumulateGrad</text>
</g>
<!-- 1221823662792&#45;&gt;1221907936264 -->
<g id="edge37" class="edge">
<title>1221823662792&#45;&gt;1221907936264</title>
<path fill="none" stroke="black" d="M369.84,-1450.09C360.17,-1442.3 346.42,-1431.22 334.98,-1422.01"/>
<polygon fill="black" stroke="black" points="337.21,-1419.32 327.23,-1415.78 332.82,-1424.78 337.21,-1419.32"/>
</g>
<!-- 1221902403128 -->
<g id="node40" class="node">
<title>1221902403128</title>
<polygon fill="lightblue" stroke="black" points="455,-1540.75 331,-1540.75 331,-1507.25 455,-1507.25 455,-1540.75"/>
<text xml:space="preserve" text-anchor="middle" x="393" y="-1527.25" font-family="monospace" font-size="10.00">Block.conv4.weight</text>
<text xml:space="preserve" text-anchor="middle" x="393" y="-1514.5" font-family="monospace" font-size="10.00"> (64, 64, 3, 3)</text>
</g>
<!-- 1221902403128&#45;&gt;1221823662792 -->
<g id="edge38" class="edge">
<title>1221902403128&#45;&gt;1221823662792</title>
<path fill="none" stroke="black" d="M390.11,-1506.94C388.79,-1499.6 387.21,-1490.82 385.79,-1482.96"/>
<polygon fill="black" stroke="black" points="389.26,-1482.43 384.04,-1473.21 382.37,-1483.67 389.26,-1482.43"/>
</g>
<!-- 1221907938504 -->
<g id="node41" class="node">
<title>1221907938504</title>
<polygon fill="lightgrey" stroke="black" points="510,-1288.25 410,-1288.25 410,-1267.5 510,-1267.5 510,-1288.25"/>
<text xml:space="preserve" text-anchor="middle" x="460" y="-1274.75" font-family="monospace" font-size="10.00">AccumulateGrad</text>
</g>
<!-- 1221907938504&#45;&gt;1221907939016 -->
<g id="edge39" class="edge">
<title>1221907938504&#45;&gt;1221907939016</title>
<path fill="none" stroke="black" d="M447.84,-1267.09C438.17,-1259.3 424.42,-1248.22 412.98,-1239.01"/>
<polygon fill="black" stroke="black" points="415.21,-1236.32 405.23,-1232.78 410.82,-1241.78 415.21,-1236.32"/>
</g>
<!-- 1221902405128 -->
<g id="node42" class="node">
<title>1221902405128</title>
<polygon fill="lightblue" stroke="black" points="533,-1357.75 409,-1357.75 409,-1324.25 533,-1324.25 533,-1357.75"/>
<text xml:space="preserve" text-anchor="middle" x="471" y="-1344.25" font-family="monospace" font-size="10.00">Block.conv5.weight</text>
<text xml:space="preserve" text-anchor="middle" x="471" y="-1331.5" font-family="monospace" font-size="10.00"> (128, 64, 3, 3)</text>
</g>
<!-- 1221902405128&#45;&gt;1221907938504 -->
<g id="edge40" class="edge">
<title>1221902405128&#45;&gt;1221907938504</title>
<path fill="none" stroke="black" d="M468.11,-1323.94C466.79,-1316.6 465.21,-1307.82 463.79,-1299.96"/>
<polygon fill="black" stroke="black" points="467.26,-1299.43 462.04,-1290.21 460.37,-1300.67 467.26,-1299.43"/>
</g>
<!-- 1221907938568 -->
<g id="node43" class="node">
<title>1221907938568</title>
<polygon fill="lightgrey" stroke="black" points="588,-1105.25 488,-1105.25 488,-1084.5 588,-1084.5 588,-1105.25"/>
<text xml:space="preserve" text-anchor="middle" x="538" y="-1091.75" font-family="monospace" font-size="10.00">AccumulateGrad</text>
</g>
<!-- 1221907938568&#45;&gt;1221907935688 -->
<g id="edge41" class="edge">
<title>1221907938568&#45;&gt;1221907935688</title>
<path fill="none" stroke="black" d="M525.84,-1084.09C516.17,-1076.3 502.42,-1065.22 490.98,-1056.01"/>
<polygon fill="black" stroke="black" points="493.21,-1053.32 483.23,-1049.78 488.82,-1058.78 493.21,-1053.32"/>
</g>
<!-- 1221902481992 -->
<g id="node44" class="node">
<title>1221902481992</title>
<polygon fill="lightblue" stroke="black" points="611,-1174.75 487,-1174.75 487,-1141.25 611,-1141.25 611,-1174.75"/>
<text xml:space="preserve" text-anchor="middle" x="549" y="-1161.25" font-family="monospace" font-size="10.00">Block.conv6.weight</text>
<text xml:space="preserve" text-anchor="middle" x="549" y="-1148.5" font-family="monospace" font-size="10.00"> (128, 128, 3, 3)</text>
</g>
<!-- 1221902481992&#45;&gt;1221907938568 -->
<g id="edge42" class="edge">
<title>1221902481992&#45;&gt;1221907938568</title>
<path fill="none" stroke="black" d="M546.11,-1140.94C544.79,-1133.6 543.21,-1124.82 541.79,-1116.96"/>
<polygon fill="black" stroke="black" points="545.26,-1116.43 540.04,-1107.21 538.37,-1117.67 545.26,-1116.43"/>
</g>
<!-- 1221907935752 -->
<g id="node45" class="node">
<title>1221907935752</title>
<polygon fill="lightgrey" stroke="black" points="666,-922.25 566,-922.25 566,-901.5 666,-901.5 666,-922.25"/>
<text xml:space="preserve" text-anchor="middle" x="616" y="-908.75" font-family="monospace" font-size="10.00">AccumulateGrad</text>
</g>
<!-- 1221907935752&#45;&gt;1221907936392 -->
<g id="edge43" class="edge">
<title>1221907935752&#45;&gt;1221907936392</title>
<path fill="none" stroke="black" d="M603.84,-901.09C594.17,-893.3 580.42,-882.22 568.98,-873.01"/>
<polygon fill="black" stroke="black" points="571.21,-870.32 561.23,-866.78 566.82,-875.78 571.21,-870.32"/>
</g>
<!-- 1221902538376 -->
<g id="node46" class="node">
<title>1221902538376</title>
<polygon fill="lightblue" stroke="black" points="689,-991.75 565,-991.75 565,-958.25 689,-958.25 689,-991.75"/>
<text xml:space="preserve" text-anchor="middle" x="627" y="-978.25" font-family="monospace" font-size="10.00">Block.conv7.weight</text>
<text xml:space="preserve" text-anchor="middle" x="627" y="-965.5" font-family="monospace" font-size="10.00"> (128, 128, 3, 3)</text>
</g>
<!-- 1221902538376&#45;&gt;1221907935752 -->
<g id="edge44" class="edge">
<title>1221902538376&#45;&gt;1221907935752</title>
<path fill="none" stroke="black" d="M624.11,-957.94C622.79,-950.6 621.21,-941.82 619.79,-933.96"/>
<polygon fill="black" stroke="black" points="623.26,-933.43 618.04,-924.21 616.37,-934.67 623.26,-933.43"/>
</g>
<!-- 1221822843336 -->
<g id="node47" class="node">
<title>1221822843336</title>
<polygon fill="lightgrey" stroke="black" points="744,-739.25 644,-739.25 644,-718.5 744,-718.5 744,-739.25"/>
<text xml:space="preserve" text-anchor="middle" x="694" y="-725.75" font-family="monospace" font-size="10.00">AccumulateGrad</text>
</g>
<!-- 1221822843336&#45;&gt;1221883668808 -->
<g id="edge45" class="edge">
<title>1221822843336&#45;&gt;1221883668808</title>
<path fill="none" stroke="black" d="M681.84,-718.09C672.17,-710.3 658.42,-699.22 646.98,-690.01"/>
<polygon fill="black" stroke="black" points="649.21,-687.32 639.23,-683.78 644.82,-692.78 649.21,-687.32"/>
</g>
<!-- 1221902598856 -->
<g id="node48" class="node">
<title>1221902598856</title>
<polygon fill="lightblue" stroke="black" points="767,-808.75 643,-808.75 643,-775.25 767,-775.25 767,-808.75"/>
<text xml:space="preserve" text-anchor="middle" x="705" y="-795.25" font-family="monospace" font-size="10.00">Block.conv8.weight</text>
<text xml:space="preserve" text-anchor="middle" x="705" y="-782.5" font-family="monospace" font-size="10.00"> (128, 128, 3, 3)</text>
</g>
<!-- 1221902598856&#45;&gt;1221822843336 -->
<g id="edge46" class="edge">
<title>1221902598856&#45;&gt;1221822843336</title>
<path fill="none" stroke="black" d="M702.11,-774.94C700.79,-767.6 699.21,-758.82 697.79,-750.96"/>
<polygon fill="black" stroke="black" points="701.26,-750.43 696.04,-741.21 694.37,-751.67 701.26,-750.43"/>
</g>
<!-- 1221647151560 -->
<g id="node49" class="node">
<title>1221647151560</title>
<polygon fill="lightgrey" stroke="black" points="789,-486.75 719,-486.75 719,-466 789,-466 789,-486.75"/>
<text xml:space="preserve" text-anchor="middle" x="754" y="-473.25" font-family="monospace" font-size="10.00">TBackward</text>
</g>
<!-- 1221647151560&#45;&gt;1221911958472 -->
<g id="edge47" class="edge">
<title>1221647151560&#45;&gt;1221911958472</title>
<path fill="none" stroke="black" d="M731.12,-465.59C711.09,-457.02 681.76,-444.48 659.17,-434.81"/>
<polygon fill="black" stroke="black" points="660.65,-431.64 650.08,-430.92 657.9,-438.07 660.65,-431.64"/>
</g>
<!-- 1221647152392 -->
<g id="node50" class="node">
<title>1221647152392</title>
<polygon fill="lightgrey" stroke="black" points="836,-549.88 736,-549.88 736,-529.12 836,-529.12 836,-549.88"/>
<text xml:space="preserve" text-anchor="middle" x="786" y="-536.38" font-family="monospace" font-size="10.00">AccumulateGrad</text>
</g>
<!-- 1221647152392&#45;&gt;1221647151560 -->
<g id="edge48" class="edge">
<title>1221647152392&#45;&gt;1221647151560</title>
<path fill="none" stroke="black" d="M780.86,-528.68C776.4,-520.16 769.81,-507.58 764.28,-497.01"/>
<polygon fill="black" stroke="black" points="767.46,-495.55 759.73,-488.31 761.26,-498.79 767.46,-495.55"/>
</g>
<!-- 1221902601736 -->
<g id="node51" class="node">
<title>1221902601736</title>
<polygon fill="lightblue" stroke="black" points="830,-625.75 742,-625.75 742,-592.25 830,-592.25 830,-625.75"/>
<text xml:space="preserve" text-anchor="middle" x="786" y="-612.25" font-family="monospace" font-size="10.00">fc1.0.weight</text>
<text xml:space="preserve" text-anchor="middle" x="786" y="-599.5" font-family="monospace" font-size="10.00"> (128, 8192)</text>
</g>
<!-- 1221902601736&#45;&gt;1221647152392 -->
<g id="edge49" class="edge">
<title>1221902601736&#45;&gt;1221647152392</title>
<path fill="none" stroke="black" d="M786,-592C786,-582.9 786,-571.39 786,-561.57"/>
<polygon fill="black" stroke="black" points="789.5,-561.84 786,-551.84 782.5,-561.84 789.5,-561.84"/>
</g>
<!-- 1221911959880 -->
<g id="node52" class="node">
<title>1221911959880</title>
<polygon fill="lightgrey" stroke="black" points="720,-203 620,-203 620,-182.25 720,-182.25 720,-203"/>
<text xml:space="preserve" text-anchor="middle" x="670" y="-189.5" font-family="monospace" font-size="10.00">ExpandBackward</text>
</g>
<!-- 1221911959880&#45;&gt;1221911958088 -->
<g id="edge50" class="edge">
<title>1221911959880&#45;&gt;1221911958088</title>
<path fill="none" stroke="black" d="M662.49,-181.84C656.88,-174.52 649.03,-164.29 642.24,-155.44"/>
<polygon fill="black" stroke="black" points="645.23,-153.58 636.36,-147.78 639.67,-157.84 645.23,-153.58"/>
</g>
<!-- 1221647151496 -->
<g id="node53" class="node">
<title>1221647151496</title>
<polygon fill="lightgrey" stroke="black" points="729,-259.75 617,-259.75 617,-239 729,-239 729,-259.75"/>
<text xml:space="preserve" text-anchor="middle" x="673" y="-246.25" font-family="monospace" font-size="10.00">ClampMinBackward</text>
</g>
<!-- 1221647151496&#45;&gt;1221911959880 -->
<g id="edge51" class="edge">
<title>1221647151496&#45;&gt;1221911959880</title>
<path fill="none" stroke="black" d="M672.46,-238.59C672.1,-231.97 671.61,-222.97 671.16,-214.77"/>
<polygon fill="black" stroke="black" points="674.66,-214.63 670.61,-204.84 667.67,-215.02 674.66,-214.63"/>
</g>
<!-- 1221868761672&#45;&gt;1221647151496 -->
<g id="edge52" class="edge">
<title>1221868761672&#45;&gt;1221647151496</title>
<path fill="none" stroke="black" d="M668.89,-295.34C669.5,-288.72 670.32,-279.72 671.07,-271.52"/>
<polygon fill="black" stroke="black" points="674.55,-271.86 671.98,-261.59 667.58,-271.23 674.55,-271.86"/>
</g>
</g>
</svg>
